<svg
    xmlns="http://www.w3.org/2000/svg"
    width="600"
    height="400"
    viewBox="0 0 600 400"
>
    <path
        d="M 231.72 29.02 L 231.29 29.02 L 231.03 28.68 L 231.00 28.31 L 230.82 27.97 L 230.44 27.73 L 230.07 27.59 L 227.69 27.04 L 226.93 26.98 L 226.13 27.08 L 225.30 27.41 L 223.61 27.45 L 222.93 27.71 L 222.54 28.42 L 222.37 29.25 L 222.01 29.78 L 221.03 29.60 L 220.07 28.66 L 218.79 25.97 L 217.64 25.02 L 217.46 25.00 L 217.12 25.00 L 216.01 25.18 L 215.08 25.70 L 214.29 26.38 L 213.74 27.04 L 213.37 27.93 L 213.34 28.75 L 213.40 29.55 L 213.32 30.36 L 213.22 30.42 L 212.55 31.09 L 212.50 31.27 L 212.40 31.92 L 211.86 33.61 L 211.67 33.94 L 211.16 34.17 L 210.69 34.09 L 210.22 33.94 L 209.73 33.95 L 209.33 34.16 L 208.98 34.49 L 208.36 35.23 L 208.46 35.93 L 209.65 37.34 L 210.14 38.05 L 210.35 39.14 L 210.15 39.93 L 209.88 40.65 L 209.90 41.55 L 210.27 42.40 L 211.32 44.09 L 211.64 44.93 L 211.89 46.56 L 212.26 47.12 L 213.10 47.64 L 214.48 48.03 L 214.75 48.39 L 214.82 48.71 L 214.85 49.02 L 214.95 49.37 L 215.84 50.55 L 216.33 51.58 L 216.52 51.87 L 217.48 52.73 L 217.50 53.13 L 216.73 55.41 L 216.59 56.14 L 216.61 56.76 L 216.77 57.00 L 217.41 57.55 L 217.63 57.89 L 217.66 58.29 L 217.53 59.14 L 217.67 59.56 L 218.25 59.97 L 218.97 60.16 L 219.53 60.49 L 219.62 61.31 L 219.13 62.03 L 218.32 62.26 L 217.48 62.38 L 216.90 62.74 L 216.85 63.41 L 217.37 65.04 L 217.22 65.81 L 216.65 66.68 L 216.49 70.71 L 216.11 72.23 L 216.09 72.92 L 216.37 73.61 L 216.92 74.10 L 218.93 74.84 L 219.42 75.13 L 219.85 75.49 L 220.16 75.94 L 220.30 76.46 L 220.26 76.88 L 220.21 77.01 L 220.12 77.21 L 219.89 77.48 L 219.58 77.68 L 219.22 77.75 L 218.35 77.56 L 217.83 78.03 L 217.97 78.49 L 218.22 79.07 L 218.15 79.48 L 218.09 79.88 L 217.67 80.18 L 216.95 80.41 L 216.20 80.54 L 215.67 80.51 L 215.05 80.07 L 214.35 78.80 L 213.76 78.31 L 213.02 78.30 L 211.49 78.95 L 210.92 78.86 L 210.75 78.47 L 210.89 78.08 L 211.11 77.69 L 211.17 77.32 L 211.01 76.87 L 210.84 76.74 L 210.58 76.72 L 209.27 76.28 L 208.43 76.13 L 207.56 76.12 L 203.16 76.95 L 202.42 77.22 L 200.54 78.49 L 199.72 78.84 L 199.05 78.92 L 198.44 78.70 L 197.85 78.16 L 197.48 77.61 L 196.92 76.49 L 196.48 76.01 L 196.87 74.50 L 196.92 73.94 L 196.84 73.79 L 196.50 73.43 L 196.42 73.18 L 197.01 72.36 L 197.48 71.19 L 197.41 70.86 L 197.32 70.86 L 197.15 70.89 L 196.44 70.38 L 195.32 69.78 L 195.02 69.57 L 194.90 68.71 L 195.65 65.39 L 195.61 64.19 L 195.14 63.52 L 194.54 63.48 L 194.62 64.21 L 194.47 64.83 L 193.93 65.08 L 188.51 69.46 L 184.89 71.34 L 184.35 71.51 L 183.05 72.84 L 182.62 73.18 L 181.19 73.78 L 180.32 73.89 L 179.57 73.61 L 179.27 73.41 L 178.95 73.28 L 178.60 73.20 L 178.24 73.18 L 177.74 73.31 L 177.61 73.64 L 177.63 74.08 L 177.57 74.57 L 176.34 79.52 L 174.33 83.18 L 173.87 83.82 L 173.14 84.23 L 171.40 84.59 L 170.69 84.91 L 171.16 86.03 L 171.22 86.35 L 171.02 86.62 L 170.29 87.11 L 170.14 87.31 L 170.05 88.19 L 169.70 89.84 L 169.61 90.65 L 170.33 91.17 L 173.77 90.57 L 174.90 90.81 L 174.90 91.06 L 173.91 92.00 L 173.18 92.55 L 172.84 92.82 L 171.68 93.46 L 170.43 93.87 L 169.52 93.90 L 167.87 93.44 L 164.50 92.89 L 163.77 93.03 L 163.24 93.56 L 162.88 94.20 L 162.40 94.75 L 160.87 95.20 L 160.27 95.73 L 159.27 96.96 L 158.22 97.87 L 157.82 98.37 L 157.66 99.05 L 157.47 99.57 L 156.61 100.78 L 156.33 101.44 L 156.33 101.97 L 155.83 103.05 L 155.41 104.46 L 154.93 108.08 L 154.57 109.36 L 154.48 110.24 L 154.32 110.95 L 153.94 111.52 L 153.50 112.04 L 153.39 112.60 L 153.41 113.15 L 153.48 113.85 L 153.40 115.26 L 153.62 116.06 L 154.15 116.70 L 154.85 117.06 L 155.54 117.06 L 156.13 116.47 L 156.11 114.88 L 156.47 114.55 L 156.59 114.47 L 157.45 114.16 L 157.66 114.12 L 157.74 114.05 L 158.18 112.58 L 158.94 111.61 L 160.10 110.83 L 161.51 110.51 L 162.97 110.91 L 163.75 111.76 L 165.97 116.61 L 166.96 117.92 L 167.15 118.24 L 167.35 118.80 L 167.49 119.03 L 167.79 119.24 L 168.45 119.52 L 168.58 119.74 L 168.86 120.09 L 169.50 120.48 L 170.14 120.71 L 170.43 120.55 L 170.63 120.01 L 170.81 119.96 L 170.89 120.37 L 170.96 122.47 L 170.68 124.10 L 169.72 127.00 L 168.72 129.60 L 168.54 131.02 L 168.38 131.68 L 168.01 132.31 L 167.67 132.53 L 166.92 132.84 L 166.62 133.05 L 166.35 133.41 L 165.92 134.54 L 165.43 135.21 L 164.49 136.45 L 164.32 137.19 L 164.50 137.74 L 164.74 138.06 L 165.15 138.58 L 165.41 139.05 L 165.54 139.69 L 165.63 141.03 L 165.86 141.73 L 166.18 142.24 L 166.97 143.22 L 167.28 143.75 L 167.41 144.43 L 167.41 145.09 L 167.53 145.69 L 168.01 146.19 L 168.69 146.62 L 169.80 147.10 L 170.91 147.43 L 171.59 147.39 L 171.90 146.87 L 172.34 146.15 L 173.15 145.54 L 174.17 145.49 L 177.33 146.70 L 177.89 147.02 L 178.23 147.41 L 178.52 147.82 L 178.81 147.92 L 179.18 147.39 L 180.96 145.72 L 182.53 143.84 L 183.00 143.02 L 183.15 142.84 L 183.52 142.60 L 183.72 142.57 L 183.95 142.62 L 187.38 142.58 L 188.48 142.70 L 189.32 143.01 L 191.02 144.06 L 192.09 144.46 L 193.21 144.55 L 194.29 144.42 L 195.23 144.16 L 195.68 143.91 L 196.02 143.66 L 196.44 143.55 L 197.10 143.73 L 197.61 144.02 L 197.92 144.34 L 198.11 144.75 L 198.25 145.28 L 198.33 146.28 L 198.13 147.43 L 197.61 148.34 L 196.72 148.58 L 195.85 149.13 L 195.27 150.58 L 195.06 152.25 L 195.29 153.46 L 195.55 153.65 L 196.20 153.79 L 196.43 153.95 L 196.56 154.29 L 196.55 154.52 L 196.49 154.73 L 196.50 154.98 L 197.29 158.39 L 197.17 160.78 L 197.26 161.75 L 197.51 162.38 L 197.97 162.88 L 199.66 164.38 L 200.70 165.56 L 201.03 166.76 L 199.38 168.36 L 199.11 168.95 L 198.74 170.28 L 198.35 170.89 L 197.40 171.98 L 197.09 172.71 L 197.03 173.50 L 197.24 175.94 L 197.06 176.64 L 196.48 177.95 L 196.35 178.61 L 196.56 179.35 L 197.48 180.27 L 197.68 180.91 L 197.47 181.53 L 196.98 182.20 L 195.90 183.23 L 195.56 183.41 L 194.88 183.66 L 194.61 183.93 L 194.51 184.33 L 194.54 185.24 L 194.40 185.68 L 193.88 186.19 L 191.40 187.57 L 191.24 187.76 L 191.17 188.17 L 190.89 188.96 L 189.76 190.13 L 189.55 190.94 L 189.81 191.65 L 190.36 192.38 L 191.25 193.23 L 191.57 193.54 L 194.02 194.68 L 194.40 195.22 L 194.28 195.49 L 193.63 196.22 L 193.42 196.52 L 193.34 196.93 L 193.35 198.37 L 193.48 198.65 L 193.79 199.47 L 194.02 199.70 L 194.30 199.86 L 194.55 200.07 L 194.69 200.43 L 194.60 201.07 L 194.02 202.60 L 193.87 203.34 L 194.00 204.12 L 194.66 205.64 L 194.78 206.21 L 194.48 206.74 L 193.24 207.52 L 192.73 207.93 L 192.06 209.03 L 191.55 210.09 L 190.94 211.08 L 189.92 211.98 L 188.70 212.67 L 188.41 213.09 L 188.27 213.92 L 188.39 215.31 L 188.18 215.83 L 187.38 216.17 L 187.10 216.39 L 187.03 216.65 L 187.13 216.92 L 187.38 217.20 L 187.42 217.29 L 187.43 217.37 L 187.42 217.46 L 187.38 217.55 L 187.02 217.75 L 186.77 218.01 L 186.69 218.35 L 186.78 218.76 L 186.86 219.59 L 186.67 220.32 L 186.59 220.64 L 185.78 222.48 L 184.48 224.02 L 183.95 224.88 L 183.96 225.78 L 184.58 226.26 L 185.97 226.52 L 187.66 226.85 L 188.41 227.23 L 189.12 227.70 L 189.75 228.27 L 190.29 228.96 L 190.94 229.10 L 192.10 229.80 L 193.21 230.26 L 193.37 230.37 L 193.51 230.35 L 193.87 230.13 L 194.08 229.91 L 194.74 228.96 L 194.84 228.35 L 195.24 228.12 L 195.75 228.02 L 196.21 227.84 L 196.46 227.51 L 197.24 225.99 L 197.95 225.03 L 202.22 221.48 L 202.71 221.32 L 203.00 221.34 L 203.25 221.24 L 203.94 220.36 L 204.00 220.24 L 204.03 219.99 L 203.83 219.93 L 203.43 219.90 L 203.18 219.78 L 203.41 219.43 L 203.95 219.25 L 204.54 219.31 L 205.12 219.26 L 205.63 218.76 L 205.81 218.62 L 205.95 218.55 L 206.05 218.58 L 206.10 218.76 L 206.17 219.02 L 206.52 219.80 L 206.61 219.71 L 206.75 219.38 L 206.94 219.08 L 207.09 218.76 L 207.86 217.96 L 209.17 217.40 L 209.93 216.87 L 209.07 216.16 L 209.52 215.99 L 210.23 215.72 L 210.48 215.37 L 210.66 214.93 L 210.76 214.39 L 210.76 213.77 L 211.64 214.33 L 212.06 213.88 L 212.40 213.10 L 213.03 212.68 L 216.63 211.97 L 216.76 211.16 L 217.71 208.48 L 218.05 206.75 L 218.37 206.00 L 219.00 205.39 L 219.25 205.39 L 219.61 205.85 L 221.13 206.27 L 222.62 207.13 L 223.42 206.88 L 229.28 200.55 L 229.89 199.89 L 230.17 199.67 L 231.29 199.73 L 233.08 199.82 L 233.79 200.22 L 234.04 200.81 L 234.18 201.49 L 234.55 202.19 L 235.72 203.02 L 235.87 203.16 L 236.16 203.33 L 237.07 204.56 L 239.01 206.29 L 240.17 206.88 L 241.32 206.81 L 242.05 207.74 L 243.10 208.63 L 244.39 209.30 L 245.80 209.57 L 249.12 209.58 L 250.36 210.22 L 250.85 211.85 L 250.20 214.51 L 250.19 214.89 L 250.74 215.04 L 252.73 216.03 L 253.59 216.14 L 253.59 215.84 L 253.22 215.25 L 252.99 214.51 L 253.20 213.88 L 253.74 213.55 L 255.11 213.21 L 255.70 212.86 L 257.12 211.54 L 259.36 210.30 L 259.60 209.87 L 260.17 209.53 L 263.50 208.03 L 264.13 207.90 L 264.82 208.08 L 266.02 208.86 L 266.67 209.04 L 267.34 208.77 L 267.79 208.19 L 268.13 207.61 L 268.52 207.34 L 268.71 206.94 L 268.38 204.56 L 268.44 203.81 L 268.64 203.27 L 268.97 202.89 L 269.27 202.74 L 269.44 202.65 L 269.47 202.63 L 269.38 202.81 L 269.36 202.84 L 269.34 202.88 L 269.33 202.89 L 270.14 202.61 L 270.78 202.20 L 271.24 201.59 L 271.50 200.72 L 271.72 199.36 L 271.97 198.72 L 272.39 198.20 L 272.72 198.00 L 273.05 197.88 L 274.20 197.69 L 275.05 197.38 L 276.47 197.13 L 276.97 196.96 L 277.32 196.65 L 277.36 196.28 L 277.13 195.95 L 275.51 194.82 L 275.18 194.69 L 275.10 194.46 L 274.99 194.31 L 274.93 194.15 L 274.94 193.88 L 275.33 192.89 L 275.98 192.07 L 276.82 191.44 L 277.76 191.03 L 280.86 190.39 L 281.25 190.39 L 283.37 191.04 L 284.08 191.18 L 284.27 191.17 L 284.83 191.08 L 285.16 191.11 L 286.15 191.36 L 287.14 191.45 L 289.40 192.06 L 289.95 192.45 L 290.28 192.76 L 290.62 192.98 L 292.83 193.98 L 293.35 194.13 L 295.60 194.25 L 296.28 194.37 L 296.93 194.59 L 297.54 194.92 L 298.12 195.31 L 298.51 195.78 L 298.77 196.30 L 299.11 196.71 L 299.74 196.84 L 300.02 196.79 L 300.20 196.69 L 300.34 196.52 L 300.50 196.27 L 301.14 195.53 L 301.88 195.03 L 302.73 194.81 L 303.67 194.90 L 304.62 195.40 L 305.34 196.19 L 307.27 199.61 L 308.92 203.72 L 309.36 204.51 L 309.88 205.14 L 312.30 207.35 L 312.50 207.63 L 312.79 208.04 L 314.51 211.86 L 314.86 213.10 L 315.10 213.53 L 315.40 213.91 L 315.55 214.04 L 315.76 214.24 L 318.29 215.76 L 318.87 216.53 L 319.75 218.30 L 320.31 219.00 L 320.47 219.25 L 320.57 219.51 L 320.81 220.32 L 320.98 220.64 L 322.14 222.02 L 323.27 223.06 L 329.28 226.24 L 330.01 226.50 L 331.85 227.67 L 332.31 228.16 L 333.07 229.32 L 333.67 230.49 L 333.95 230.83 L 334.25 231.05 L 334.91 231.43 L 335.19 231.68 L 335.34 231.91 L 336.26 233.98 L 336.37 234.45 L 336.39 234.95 L 336.26 236.94 L 336.33 239.38 L 336.18 241.27 L 336.00 242.18 L 333.50 248.17 L 333.31 249.08 L 333.54 251.49 L 333.67 252.82 L 333.80 253.27 L 334.18 254.11 L 334.32 254.56 L 334.34 255.05 L 334.27 255.52 L 334.01 256.45 L 333.99 256.57 L 333.93 256.94 L 333.95 257.40 L 334.78 260.77 L 334.81 261.22 L 334.75 261.66 L 334.21 263.18 L 333.80 264.89 L 333.62 266.64 L 333.66 267.57 L 333.86 268.40 L 334.27 269.11 L 334.95 269.70 L 337.13 270.89 L 337.77 271.45 L 338.29 272.09 L 338.70 272.77 L 339.02 273.50 L 339.38 274.77 L 339.56 275.19 L 339.81 275.56 L 340.17 275.88 L 341.20 276.48 L 341.51 276.74 L 342.27 277.56 L 342.57 277.79 L 342.91 277.98 L 343.66 278.41 L 343.97 278.68 L 344.39 279.46 L 344.52 280.35 L 344.49 282.16 L 344.63 283.23 L 345.01 284.20 L 345.62 285.03 L 346.44 285.67 L 347.51 286.06 L 352.56 287.90 L 352.96 287.97 L 354.55 288.04 L 359.06 289.20 L 359.43 289.35 L 359.72 289.57 L 359.77 289.77 L 359.80 289.89 L 359.57 290.19 L 359.16 290.42 L 358.35 290.76 L 357.42 291.82 L 357.34 293.26 L 357.81 294.78 L 359.34 298.14 L 359.76 298.79 L 360.25 299.29 L 360.73 299.56 L 361.29 299.65 L 362.88 299.51 L 363.73 299.62 L 365.40 300.19 L 367.12 301.33 L 368.20 302.94 L 368.59 304.88 L 368.20 306.97 L 367.25 309.50 L 367.08 310.39 L 367.02 312.11 L 366.78 312.85 L 366.32 313.32 L 366.17 313.48 L 364.79 314.36 L 362.98 314.95 L 362.21 315.47 L 361.87 316.37 L 362.10 317.12 L 362.71 317.52 L 363.49 317.67 L 364.24 317.65 L 364.99 317.50 L 365.13 317.67 L 365.25 318.55 L 365.22 319.65 L 365.08 319.71 L 363.97 320.45 L 362.90 321.34 L 361.31 323.03 L 360.98 323.60 L 360.72 324.43 L 360.57 325.30 L 360.56 326.22 L 360.88 326.90 L 361.73 327.06 L 362.68 328.06 L 362.88 328.11 L 363.38 328.02 L 363.55 328.06 L 363.64 328.27 L 363.63 328.72 L 363.68 328.89 L 364.82 330.54 L 365.31 330.93 L 365.31 330.93 L 365.32 330.93 L 366.35 331.14 L 365.98 331.68 L 364.45 332.68 L 364.07 333.45 L 364.71 334.75 L 364.41 335.65 L 364.20 335.74 L 363.59 335.71 L 363.43 335.75 L 363.36 336.00 L 363.40 336.61 L 363.68 337.18 L 363.69 337.40 L 363.52 337.55 L 362.98 337.68 L 362.80 337.80 L 362.51 338.55 L 362.32 339.48 L 362.38 340.40 L 362.80 341.12 L 362.94 341.52 L 362.64 343.39 L 362.58 344.64 L 363.14 347.34 L 363.04 348.54 L 362.57 349.64 L 361.34 351.32 L 360.43 352.16 L 360.18 352.46 L 359.99 352.86 L 359.66 353.80 L 359.49 354.09 L 359.09 354.30 L 358.06 354.49 L 357.62 354.64 L 357.31 354.90 L 356.58 355.64 L 356.35 355.82 L 355.86 355.79 L 355.17 355.31 L 354.79 355.27 L 354.52 355.51 L 354.05 356.37 L 353.78 356.69 L 353.07 356.98 L 351.05 357.47 L 350.51 357.45 L 350.51 358.74 L 350.65 359.68 L 351.02 360.53 L 353.32 364.11 L 354.04 364.83 L 354.30 364.97 L 354.86 365.15 L 355.15 365.34 L 356.14 366.76 L 356.46 367.06 L 356.85 367.23 L 357.48 367.31 L 358.58 367.32 L 359.73 367.15 L 360.81 366.77 L 361.73 366.15 L 362.38 365.97 L 362.95 365.63 L 364.03 364.85 L 364.34 365.06 L 364.64 365.31 L 364.90 365.59 L 365.12 365.92 L 365.71 365.68 L 366.41 365.99 L 367.00 366.63 L 367.29 367.35 L 367.89 366.90 L 368.29 366.92 L 368.68 367.19 L 369.31 367.46 L 369.86 367.52 L 370.69 367.39 L 371.11 367.41 L 372.20 368.01 L 372.78 369.00 L 373.21 370.14 L 373.87 371.14 L 377.20 374.13 L 378.07 374.62 L 378.23 374.71 L 379.19 374.93 L 380.15 374.83 L 381.11 374.44 L 382.02 374.48 L 384.02 375.00 L 384.80 374.96 L 385.37 374.24 L 385.29 372.33 L 385.76 371.71 L 386.32 371.13 L 387.02 370.65 L 387.62 370.12 L 387.91 369.37 L 387.72 368.60 L 387.20 368.00 L 386.58 367.46 L 386.06 366.85 L 385.07 364.43 L 384.47 363.73 L 383.14 362.86 L 382.60 362.34 L 382.27 361.52 L 382.43 360.51 L 382.29 359.72 L 381.86 359.07 L 381.11 358.45 L 380.92 358.01 L 380.87 357.55 L 380.93 357.08 L 381.11 356.63 L 381.89 356.77 L 383.60 357.37 L 384.26 357.34 L 384.37 357.15 L 384.47 356.51 L 384.58 356.34 L 384.78 356.32 L 385.20 356.35 L 385.80 356.31 L 386.73 356.48 L 388.09 356.56 L 388.83 356.47 L 389.45 356.10 L 390.02 355.24 L 390.28 354.36 L 390.67 352.24 L 391.03 351.55 L 391.26 351.79 L 393.62 353.28 L 393.99 353.38 L 394.52 353.42 L 395.04 353.27 L 395.29 353.24 L 397.38 352.94 L 398.36 352.52 L 398.76 351.73 L 398.91 351.70 L 399.20 351.46 L 399.37 351.18 L 398.92 350.92 L 398.88 350.65 L 398.95 350.36 L 399.03 350.19 L 399.39 349.97 L 399.81 350.02 L 400.31 350.15 L 400.90 350.19 L 400.90 349.93 L 400.62 349.83 L 400.45 349.63 L 400.37 349.34 L 400.35 348.94 L 400.42 348.54 L 400.61 348.43 L 400.86 348.40 L 401.14 348.26 L 401.98 347.47 L 402.21 347.69 L 402.69 348.47 L 402.85 348.98 L 403.05 350.27 L 403.19 350.66 L 403.52 350.87 L 404.41 351.07 L 404.81 351.32 L 405.57 352.52 L 406.22 352.89 L 406.70 353.16 L 409.52 354.04 L 409.69 354.18 L 409.99 354.51 L 410.17 354.76 L 410.47 355.37 L 411.83 357.34 L 412.84 358.39 L 413.38 358.79 L 413.92 359.01 L 414.50 359.03 L 416.01 358.16 L 416.19 357.98 L 416.41 357.87 L 416.82 357.83 L 417.18 357.96 L 417.90 358.42 L 418.29 358.49 L 418.78 358.36 L 418.92 358.15 L 418.93 357.89 L 419.36 356.85 L 419.84 356.74 L 420.01 356.65 L 420.76 355.43 L 421.90 354.00 L 421.92 353.80 L 422.04 353.76 L 422.53 353.98 L 423.16 354.50 L 423.49 354.99 L 423.91 355.20 L 424.77 354.92 L 425.96 354.11 L 427.02 353.13 L 427.33 352.50 L 427.55 351.80 L 427.86 351.31 L 428.44 351.31 L 428.44 351.32 L 428.45 351.32 L 428.46 351.32 L 429.05 351.42 L 429.38 351.24 L 429.79 350.41 L 429.87 349.59 L 429.93 349.32 L 430.08 349.12 L 430.53 348.85 L 430.73 348.67 L 431.41 347.67 L 432.00 347.14 L 432.71 347.19 L 433.76 347.97 L 434.49 348.64 L 434.87 348.79 L 435.60 348.95 L 436.50 349.37 L 436.94 349.39 L 437.44 348.97 L 437.56 348.65 L 437.56 348.31 L 437.52 347.96 L 437.54 347.64 L 437.65 347.31 L 437.93 346.92 L 438.06 346.69 L 438.37 345.76 L 438.62 345.50 L 439.22 345.19 L 440.51 343.27 L 441.03 342.81 L 441.10 342.24 L 440.81 341.85 L 440.41 341.52 L 440.16 341.12 L 440.60 340.61 L 440.41 340.01 L 440.02 339.38 L 439.89 338.75 L 440.19 338.20 L 441.81 336.60 L 442.38 335.81 L 442.49 335.38 L 442.16 335.03 L 439.83 333.20 L 439.22 332.87 L 438.76 332.52 L 438.45 332.07 L 438.30 331.53 L 438.36 330.93 L 438.10 330.28 L 438.13 329.73 L 438.50 329.37 L 439.22 329.30 L 440.33 328.97 L 440.98 328.77 L 441.60 328.71 L 442.67 328.89 L 443.26 328.83 L 443.69 328.39 L 443.73 327.95 L 443.37 327.22 L 443.36 326.82 L 443.53 326.51 L 444.08 326.08 L 444.32 325.84 L 444.73 325.23 L 444.94 324.46 L 445.03 323.12 L 445.17 322.75 L 445.54 322.40 L 445.77 322.50 L 445.95 322.70 L 446.21 322.62 L 446.32 322.37 L 446.61 320.44 L 446.60 319.81 L 446.35 319.24 L 445.78 318.61 L 444.06 317.28 L 443.59 316.76 L 443.33 316.03 L 443.25 314.46 L 443.20 314.32 L 443.07 313.99 L 442.39 313.80 L 440.73 314.06 L 440.00 313.63 L 439.84 312.90 L 439.86 311.94 L 439.75 311.13 L 439.22 310.85 L 438.94 311.01 L 438.72 311.00 L 438.55 310.84 L 438.43 310.53 L 438.22 310.04 L 438.03 309.99 L 437.84 310.14 L 437.61 310.21 L 436.84 310.01 L 436.56 310.02 L 436.17 310.31 L 435.93 310.67 L 435.65 310.83 L 435.18 310.53 L 433.13 306.75 L 432.63 306.30 L 431.15 305.53 L 430.50 305.02 L 430.13 304.45 L 429.95 303.80 L 429.78 302.11 L 429.61 301.52 L 429.21 301.09 L 427.08 299.81 L 426.63 299.21 L 426.68 298.36 L 427.66 296.15 L 428.08 295.71 L 428.56 295.60 L 428.96 295.72 L 429.32 295.89 L 429.67 295.96 L 430.00 295.87 L 432.69 294.09 L 433.38 293.81 L 434.86 293.55 L 435.42 293.27 L 436.00 292.59 L 437.06 290.64 L 437.63 290.14 L 438.10 289.56 L 438.05 289.20 L 437.79 288.88 L 437.61 288.41 L 437.65 287.71 L 437.66 287.63 L 437.75 287.16 L 437.57 286.97 L 436.81 286.99 L 434.66 287.55 L 433.53 287.68 L 432.45 287.35 L 431.56 286.54 L 430.12 284.68 L 429.11 283.99 L 428.50 283.81 L 427.96 283.72 L 427.44 283.57 L 426.85 283.20 L 426.37 282.75 L 426.13 282.43 L 426.03 282.29 L 425.81 281.77 L 425.39 279.59 L 425.06 279.06 L 424.32 278.51 L 423.60 278.14 L 423.50 278.11 L 422.93 277.93 L 421.42 277.76 L 420.10 277.80 L 419.60 277.74 L 419.18 277.45 L 419.09 277.17 L 418.95 276.25 L 418.77 275.85 L 418.52 275.63 L 417.57 275.09 L 416.90 274.53 L 416.54 274.03 L 416.07 272.92 L 415.94 272.95 L 415.69 273.08 L 415.44 273.17 L 415.28 273.06 L 415.28 272.83 L 415.37 272.65 L 415.49 272.52 L 415.54 272.41 L 415.71 271.05 L 415.60 269.41 L 414.92 268.35 L 414.00 268.31 L 413.17 269.74 L 413.01 270.41 L 412.58 270.84 L 411.53 271.52 L 411.36 271.85 L 411.35 272.16 L 411.28 272.47 L 411.24 272.50 L 410.88 272.78 L 410.50 272.94 L 410.24 272.96 L 410.12 272.77 L 410.12 272.33 L 408.97 272.52 L 408.10 271.84 L 407.50 270.77 L 406.96 269.15 L 406.90 268.69 L 407.08 266.50 L 406.92 266.04 L 406.33 265.76 L 405.81 265.72 L 405.03 265.40 L 404.30 264.95 L 403.42 263.96 L 403.07 263.09 L 402.85 262.09 L 402.79 251.20 L 402.79 250.30 L 402.44 249.62 L 401.37 250.65 L 400.47 250.38 L 399.81 250.26 L 399.06 249.98 L 398.40 249.64 L 398.06 249.36 L 398.06 249.35 L 397.96 248.96 L 397.77 248.59 L 397.12 247.26 L 397.15 247.07 L 397.40 246.64 L 397.42 246.41 L 397.02 245.70 L 395.16 243.94 L 393.99 241.98 L 393.77 241.37 L 393.81 240.94 L 394.12 240.29 L 394.15 239.92 L 394.01 239.68 L 393.48 239.11 L 393.28 238.83 L 393.19 238.33 L 393.23 237.90 L 393.14 237.57 L 392.68 237.36 L 392.19 237.38 L 391.99 237.63 L 391.90 237.98 L 391.72 238.32 L 391.16 238.90 L 390.71 239.19 L 390.15 239.14 L 389.30 238.68 L 382.87 233.09 L 379.50 228.96 L 379.49 228.96 L 378.67 228.10 L 376.15 224.79 L 375.14 223.83 L 373.88 222.99 L 371.86 222.10 L 371.39 221.71 L 371.03 221.06 L 370.54 219.50 L 370.18 218.83 L 369.32 217.65 L 368.32 215.73 L 366.82 214.34 L 366.39 212.96 L 366.85 209.86 L 366.75 209.65 L 366.22 208.57 L 366.22 208.57 L 365.31 208.06 L 365.04 207.77 L 364.90 207.37 L 364.75 206.44 L 364.55 205.99 L 364.22 205.67 L 363.54 205.30 L 363.23 205.01 L 362.59 203.57 L 362.43 203.45 L 361.99 203.35 L 361.81 203.20 L 361.85 203.10 L 361.93 202.95 L 362.01 202.73 L 362.00 202.49 L 361.69 201.38 L 361.45 201.01 L 360.86 200.53 L 360.08 200.21 L 359.26 200.16 L 358.56 200.47 L 358.33 200.85 L 358.15 201.75 L 358.00 202.04 L 357.64 202.28 L 357.53 202.23 L 357.45 202.06 L 357.16 201.92 L 356.55 201.76 L 355.84 201.45 L 355.21 201.01 L 354.80 200.41 L 354.78 199.95 L 355.03 198.97 L 354.97 198.52 L 354.70 198.08 L 354.53 198.06 L 354.34 198.19 L 353.32 198.30 L 352.92 198.34 L 352.51 198.22 L 352.25 197.98 L 351.91 197.35 L 351.69 197.06 L 349.81 195.88 L 349.44 195.35 L 349.41 194.50 L 349.66 193.96 L 349.68 193.46 L 349.01 192.76 L 347.79 191.87 L 346.89 190.99 L 346.47 189.86 L 346.67 188.17 L 347.26 185.91 L 347.77 184.70 L 348.33 183.96 L 348.81 183.90 L 349.26 184.05 L 349.65 183.99 L 349.94 183.31 L 349.94 183.17 L 349.94 182.67 L 349.68 182.33 L 348.84 181.75 L 347.74 179.91 L 347.26 179.76 L 346.80 179.82 L 346.35 179.94 L 345.87 179.98 L 344.93 179.64 L 342.99 178.49 L 342.36 178.37 L 341.70 178.55 L 340.94 178.57 L 340.26 178.39 L 339.85 177.98 L 339.47 176.96 L 338.45 176.66 L 336.22 176.84 L 335.68 176.77 L 334.18 176.31 L 332.60 176.09 L 332.14 175.92 L 331.84 175.66 L 331.39 174.97 L 331.19 174.75 L 330.80 174.61 L 330.05 174.55 L 329.66 174.43 L 329.08 174.03 L 328.02 172.96 L 327.47 172.53 L 326.17 171.83 L 325.71 171.40 L 324.38 169.38 L 323.91 168.91 L 323.26 168.51 L 322.53 168.32 L 321.33 168.45 L 320.63 168.29 L 320.15 167.92 L 319.04 166.23 L 318.38 165.65 L 317.76 165.35 L 317.10 165.14 L 316.36 164.80 L 315.75 164.32 L 315.25 163.79 L 314.69 163.36 L 314.68 163.36 L 313.90 163.16 L 312.78 163.49 L 312.44 163.15 L 312.44 162.42 L 312.30 161.61 L 311.90 161.22 L 310.35 160.14 L 306.05 158.21 L 305.25 158.02 L 304.44 158.06 L 303.61 158.41 L 303.57 158.41 L 302.42 157.58 L 301.44 157.07 L 301.17 156.87 L 300.98 156.59 L 300.46 155.62 L 299.85 155.54 L 299.14 155.56 L 298.75 155.37 L 299.07 154.66 L 299.59 154.27 L 300.98 153.66 L 301.57 153.21 L 302.34 152.05 L 302.79 151.66 L 303.61 151.46 L 304.49 151.00 L 305.41 150.68 L 305.98 150.61 L 306.11 150.76 L 306.13 150.74 L 306.43 150.17 L 306.56 149.76 L 306.72 148.82 L 306.97 148.38 L 307.35 148.14 L 307.77 148.05 L 308.11 147.87 L 308.27 147.39 L 308.26 147.39 L 307.82 146.83 L 307.69 146.16 L 307.64 145.46 L 307.39 144.80 L 306.95 144.43 L 305.74 143.70 L 305.29 143.11 L 304.53 140.99 L 304.44 140.48 L 304.66 139.84 L 305.02 139.68 L 305.46 139.81 L 307.32 140.76 L 308.06 141.01 L 308.85 140.89 L 309.16 140.64 L 309.45 140.03 L 309.71 139.77 L 309.90 139.56 L 310.75 139.55 L 312.38 139.11 L 313.49 138.80 L 314.00 139.25 L 315.36 139.71 L 316.06 140.89 L 317.87 139.74 L 318.57 139.56 L 319.35 139.65 L 319.80 139.99 L 320.17 140.50 L 320.72 141.06 L 321.04 141.26 L 322.02 141.69 L 324.22 143.01 L 324.88 143.15 L 325.78 143.05 L 326.12 142.91 L 326.72 142.51 L 327.07 142.39 L 327.40 142.48 L 328.06 142.86 L 328.42 142.83 L 328.76 142.39 L 329.99 139.13 L 330.31 138.59 L 330.81 138.04 L 331.42 137.60 L 331.91 137.47 L 332.43 137.41 L 333.17 137.19 L 334.10 136.34 L 335.05 135.91 L 335.81 135.34 L 336.20 134.06 L 336.27 133.38 L 336.26 133.01 L 335.98 132.78 L 335.24 132.54 L 334.10 132.46 L 333.90 132.24 L 334.14 131.48 L 334.87 130.56 L 336.99 129.31 L 337.86 128.64 L 338.22 128.07 L 338.29 127.72 L 338.48 127.52 L 339.22 127.40 L 340.37 127.54 L 340.88 127.46 L 341.27 127.12 L 341.41 127.00 L 341.56 126.43 L 341.49 125.94 L 341.37 125.44 L 341.29 124.68 L 341.19 124.33 L 341.20 124.08 L 341.33 123.98 L 341.87 123.87 L 341.99 123.71 L 341.70 123.07 L 340.21 122.09 L 339.68 121.32 L 339.63 120.41 L 339.84 119.97 L 339.80 119.66 L 336.36 117.80 L 334.80 117.88 L 333.05 118.46 L 331.39 118.80 L 330.08 118.14 L 329.93 117.60 L 329.89 116.77 L 329.95 115.94 L 330.09 115.41 L 330.42 115.16 L 330.74 115.18 L 331.04 115.09 L 331.30 114.53 L 331.33 114.17 L 331.27 113.69 L 331.15 113.23 L 331.01 112.90 L 330.44 112.46 L 328.97 111.89 L 328.35 111.45 L 327.46 110.22 L 326.92 109.92 L 321.38 110.05 L 319.79 109.65 L 318.56 108.88 L 318.82 108.11 L 321.04 106.60 L 321.04 106.60 L 321.86 105.01 L 322.82 105.76 L 323.83 105.93 L 324.80 105.63 L 325.65 104.96 L 328.15 101.56 L 328.42 100.60 L 328.46 100.44 L 327.90 99.87 L 325.70 99.13 L 323.70 98.17 L 323.05 97.52 L 322.68 96.24 L 322.16 95.67 L 321.37 95.58 L 320.48 95.60 L 319.70 95.36 L 319.41 95.06 L 319.09 94.36 L 318.88 94.05 L 318.58 93.85 L 317.98 93.62 L 317.65 93.40 L 317.15 92.80 L 316.53 91.55 L 316.06 90.93 L 315.78 90.68 L 315.43 90.45 L 315.05 90.26 L 314.70 90.15 L 314.33 90.17 L 313.46 90.42 L 313.19 90.43 L 313.05 90.22 L 312.65 89.38 L 312.42 89.06 L 312.13 88.88 L 311.03 88.48 L 310.62 88.42 L 309.74 88.40 L 309.37 88.34 L 309.05 88.18 L 308.46 87.75 L 308.20 87.61 L 306.82 87.70 L 305.03 89.77 L 303.61 90.01 L 303.16 89.99 L 302.77 90.09 L 301.99 90.44 L 299.14 91.34 L 298.83 91.54 L 298.26 92.05 L 297.91 92.24 L 297.52 92.27 L 296.73 92.16 L 296.30 92.31 L 295.93 92.76 L 295.52 93.52 L 295.20 94.34 L 295.05 95.00 L 295.14 95.84 L 295.27 96.23 L 295.11 96.51 L 294.33 97.00 L 293.85 97.16 L 293.52 97.21 L 293.28 97.37 L 293.09 97.90 L 293.14 98.29 L 293.53 99.08 L 293.55 99.41 L 293.33 99.62 L 292.91 99.83 L 292.43 99.99 L 292.08 100.03 L 291.66 99.96 L 291.49 99.86 L 291.37 99.70 L 290.52 98.96 L 289.02 97.35 L 288.27 96.92 L 285.87 96.41 L 285.87 96.40 L 285.48 96.39 L 285.14 96.29 L 284.84 96.12 L 284.54 95.90 L 284.12 95.37 L 283.41 94.01 L 282.94 93.54 L 282.40 93.34 L 282.20 93.44 L 282.08 93.70 L 281.81 93.95 L 281.02 94.40 L 280.95 94.41 L 279.97 94.69 L 279.76 94.68 L 279.35 94.63 L 278.27 94.27 L 276.08 93.11 L 275.45 92.93 L 275.10 92.96 L 274.62 93.10 L 274.34 93.19 L 273.89 93.18 L 273.51 93.05 L 272.99 92.67 L 272.66 92.50 L 272.27 92.40 L 271.57 92.30 L 271.16 92.12 L 270.91 91.94 L 270.34 91.39 L 269.23 90.02 L 268.52 88.83 L 267.31 86.21 L 266.44 84.37 L 265.84 83.68 L 264.87 83.26 L 264.30 83.34 L 264.00 83.21 L 263.81 82.93 L 263.63 82.56 L 263.37 81.85 L 263.00 80.29 L 262.99 80.25 L 262.56 79.56 L 262.16 79.33 L 261.84 79.31 L 261.58 79.24 L 261.34 78.83 L 261.34 78.43 L 261.68 77.62 L 261.73 77.25 L 261.53 76.77 L 261.15 76.33 L 260.65 75.98 L 260.07 75.76 L 259.22 75.73 L 258.48 75.80 L 258.17 75.63 L 258.62 74.85 L 259.25 74.36 L 260.57 74.04 L 261.04 73.57 L 261.18 72.88 L 261.21 71.02 L 261.37 70.18 L 262.65 68.13 L 262.70 67.66 L 262.16 67.56 L 261.41 67.91 L 260.63 68.39 L 260.05 68.67 L 261.81 65.82 L 262.64 65.07 L 264.10 63.29 L 264.87 62.56 L 264.90 62.44 L 264.92 62.32 L 264.90 62.21 L 264.87 62.09 L 264.48 61.20 L 264.36 60.21 L 264.39 57.41 L 264.32 56.94 L 264.17 56.49 L 263.85 55.96 L 263.65 55.88 L 263.43 56.04 L 260.62 57.24 L 259.95 57.29 L 259.49 56.80 L 259.36 56.01 L 259.48 54.39 L 259.15 52.52 L 258.39 51.92 L 257.70 52.56 L 257.61 55.84 L 257.14 57.15 L 256.27 58.25 L 255.07 59.03 L 254.65 59.13 L 252.60 59.17 L 252.45 59.25 L 252.34 59.19 L 252.05 58.77 L 251.80 58.14 L 251.61 57.21 L 251.53 56.28 L 251.72 53.89 L 251.35 52.22 L 250.03 49.26 L 248.83 48.28 L 247.12 47.71 L 245.65 46.96 L 245.20 45.42 L 245.23 45.27 L 245.30 45.12 L 245.39 44.99 L 245.50 44.87 L 245.84 44.36 L 245.25 43.85 L 244.28 43.30 L 243.48 42.70 L 243.22 42.24 L 242.83 41.22 L 242.58 40.79 L 242.22 40.46 L 241.00 39.74 L 238.23 37.07 L 235.89 35.92 L 235.15 35.22 L 234.90 34.41 L 234.34 33.88 L 233.67 33.42 L 233.11 32.81 L 233.05 32.55 L 233.18 32.07 L 233.18 31.85 L 233.05 31.67 L 232.71 31.42 L 232.60 31.28 L 232.22 29.99 L 231.99 29.58 L 231.72 29.02 Z"
        fill="currentColor"
        fill-rule="evenodd"
    />
</svg>
