<svg
    xmlns="http://www.w3.org/2000/svg"
    width="600"
    height="400"
    viewBox="0 0 600 400"
>
    <path
        d="M 322.75 359.69 L 321.97 356.73 L 321.71 355.20 L 322.06 354.18 L 321.55 351.96 L 321.15 346.60 L 320.26 344.51 L 320.37 343.75 L 320.22 342.26 L 319.91 340.61 L 319.54 339.35 L 319.26 338.94 L 318.36 338.18 L 317.96 337.74 L 317.53 337.05 L 317.49 336.99 L 317.38 336.59 L 317.34 336.14 L 317.06 335.21 L 316.86 335.22 L 316.78 335.14 L 316.75 334.43 L 316.92 334.16 L 317.47 333.50 L 317.53 333.17 L 317.64 332.87 L 317.68 332.54 L 317.55 332.12 L 318.04 331.79 L 319.41 330.27 L 319.77 329.73 L 320.04 328.71 L 320.50 325.47 L 321.21 323.44 L 322.13 322.06 L 326.91 317.92 L 328.34 315.30 L 328.91 313.00 L 330.05 309.85 L 330.33 308.66 L 330.30 307.97 L 330.15 307.33 L 330.12 306.78 L 330.47 306.38 L 332.13 306.04 L 332.69 305.65 L 333.36 305.70 L 334.02 305.91 L 334.66 305.99 L 335.31 305.65 L 335.99 305.45 L 336.38 305.19 L 336.92 304.45 L 337.44 303.05 L 337.89 302.53 L 338.79 302.62 L 341.73 303.87 L 343.05 303.71 L 343.48 302.07 L 343.97 301.23 L 344.42 299.19 L 345.39 297.14 L 346.10 294.89 L 346.50 293.89 L 347.03 291.97 L 346.87 291.85 L 346.16 291.32 L 344.71 291.45 L 343.36 291.87 L 343.21 291.86 L 342.93 291.76 L 342.29 292.67 L 341.02 293.25 L 339.71 293.53 L 338.92 293.52 L 338.21 292.84 L 337.70 292.35 L 335.61 286.88 L 335.33 286.58 L 334.45 285.90 L 334.09 285.52 L 333.86 285.10 L 333.53 284.20 L 333.31 283.81 L 327.80 276.59 L 326.33 275.48 L 325.62 275.12 L 326.36 274.31 L 326.87 273.56 L 326.92 272.78 L 326.32 271.89 L 326.83 271.10 L 327.78 267.70 L 329.95 264.49 L 330.23 263.56 L 330.07 263.04 L 329.77 262.80 L 329.42 262.60 L 329.17 262.18 L 329.09 261.64 L 329.06 260.96 L 329.17 259.42 L 329.53 257.11 L 329.70 256.63 L 330.14 255.73 L 330.23 255.47 L 332.55 253.54 L 333.30 252.92 L 334.08 252.61 L 334.95 251.87 L 335.66 251.03 L 335.95 250.39 L 336.45 249.96 L 338.85 249.42 L 339.69 249.01 L 340.32 248.34 L 340.96 247.81 L 341.38 247.54 L 341.32 246.57 L 341.59 245.52 L 340.87 244.20 L 341.99 243.25 L 343.15 241.62 L 344.89 238.19 L 345.40 237.51 L 345.69 236.82 L 345.61 236.21 L 345.01 235.74 L 345.37 234.58 L 345.05 233.26 L 344.32 232.05 L 343.48 231.23 L 342.28 230.40 L 340.92 230.02 L 339.55 230.18 L 338.31 230.94 L 337.68 231.19 L 336.89 231.05 L 336.12 230.65 L 335.59 230.11 L 335.52 229.54 L 336.09 228.23 L 336.20 227.54 L 335.56 226.25 L 334.34 225.68 L 332.89 225.29 L 331.60 224.57 L 330.88 223.51 L 330.48 222.16 L 330.55 220.74 L 331.25 219.51 L 328.67 216.32 L 327.69 215.53 L 327.31 214.74 L 327.06 213.30 L 327.04 211.81 L 327.31 210.86 L 327.72 209.88 L 327.99 208.34 L 327.99 206.90 L 327.61 206.23 L 325.42 205.64 L 324.32 205.11 L 323.53 204.46 L 323.03 202.98 L 322.58 202.40 L 320.82 201.48 L 319.95 200.64 L 318.41 198.56 L 317.47 197.71 L 315.78 193.02 L 315.39 192.08 L 315.31 191.90 L 326.54 192.44 L 327.25 192.24 L 328.10 191.87 L 329.07 191.66 L 331.15 191.73 L 332.04 191.45 L 333.17 192.15 L 334.79 192.22 L 342.44 191.26 L 343.20 190.94 L 343.80 189.50 L 343.74 189.00 L 343.59 188.54 L 343.61 187.91 L 343.85 187.28 L 344.47 186.17 L 344.66 185.53 L 344.58 184.97 L 344.36 184.35 L 344.29 183.62 L 344.66 182.71 L 345.07 182.37 L 346.26 181.87 L 346.75 181.57 L 348.06 179.61 L 348.24 178.96 L 348.28 177.83 L 348.37 177.24 L 348.38 176.90 L 348.20 176.22 L 348.19 175.84 L 348.34 175.53 L 348.85 175.15 L 349.01 174.89 L 349.31 173.22 L 349.52 172.62 L 349.42 171.89 L 349.66 171.17 L 350.56 169.68 L 348.47 165.92 L 347.31 164.47 L 346.60 163.35 L 346.05 162.86 L 345.49 162.65 L 344.11 162.45 L 343.48 162.27 L 342.86 161.35 L 342.49 159.05 L 342.06 158.06 L 342.50 157.27 L 343.01 155.71 L 343.48 155.08 L 344.42 154.67 L 346.66 153.21 L 347.31 153.10 L 347.66 153.04 L 348.68 153.13 L 349.69 153.06 L 350.64 152.40 L 350.80 152.00 L 350.83 151.46 L 350.86 150.88 L 351.05 150.36 L 351.38 149.99 L 353.62 148.35 L 354.08 147.88 L 354.99 146.25 L 353.24 144.62 L 352.04 142.67 L 351.73 140.47 L 352.69 138.10 L 353.91 136.39 L 354.05 135.58 L 353.76 134.41 L 353.22 133.49 L 352.64 132.88 L 352.19 132.20 L 352.08 131.02 L 352.39 129.97 L 353.60 127.78 L 353.96 126.63 L 353.96 125.82 L 353.86 124.61 L 353.44 122.35 L 352.78 120.15 L 352.67 119.19 L 352.67 117.88 L 352.76 117.22 L 352.91 116.85 L 352.96 116.47 L 352.79 115.76 L 352.72 115.32 L 352.80 113.61 L 353.65 113.34 L 353.86 112.49 L 353.60 111.60 L 353.04 111.20 L 352.26 111.00 L 351.83 110.44 L 351.39 109.02 L 350.27 106.28 L 349.54 105.07 L 347.91 103.37 L 347.40 102.60 L 347.29 101.75 L 347.85 100.87 L 348.05 99.60 L 348.07 99.59 L 349.15 99.05 L 352.35 99.33 L 353.77 99.18 L 354.48 98.49 L 356.54 95.49 L 356.97 94.26 L 356.84 92.59 L 357.03 92.12 L 357.71 91.27 L 359.54 89.72 L 359.84 89.17 L 360.23 88.17 L 362.08 85.44 L 362.68 84.78 L 363.60 84.62 L 367.01 84.57 L 367.48 84.24 L 370.52 82.93 L 372.23 81.64 L 373.90 79.96 L 375.53 77.36 L 375.74 77.30 L 376.38 77.43 L 376.59 77.36 L 376.72 76.99 L 376.78 76.47 L 376.75 76.06 L 376.59 76.03 L 377.26 75.50 L 377.99 75.22 L 379.61 75.10 L 379.62 74.52 L 381.60 71.42 L 381.62 70.97 L 381.48 70.52 L 381.44 69.98 L 381.78 69.30 L 383.12 67.92 L 385.60 64.36 L 385.07 63.69 L 384.35 62.70 L 382.15 60.45 L 379.82 58.97 L 377.28 58.06 L 373.06 57.21 L 372.35 57.19 L 371.99 57.49 L 371.64 57.90 L 370.93 58.38 L 370.15 58.77 L 369.61 58.92 L 368.15 58.38 L 367.43 57.30 L 367.16 55.98 L 367.03 54.73 L 366.79 54.09 L 366.44 53.51 L 366.28 52.92 L 366.59 52.28 L 366.96 51.73 L 367.18 51.09 L 368.45 45.58 L 369.05 44.31 L 367.70 43.87 L 366.78 43.74 L 366.37 43.27 L 366.79 40.35 L 366.58 39.24 L 365.88 38.42 L 364.61 37.91 L 363.92 39.35 L 362.15 39.88 L 358.45 40.03 L 356.89 39.58 L 355.00 36.73 L 353.41 36.46 L 353.08 38.47 L 351.85 39.21 L 348.61 39.47 L 347.16 39.19 L 345.89 38.22 L 345.16 37.86 L 344.70 37.63 L 343.48 38.49 L 341.63 39.28 L 340.00 38.55 L 338.41 37.23 L 336.74 36.21 L 335.99 36.33 L 335.08 36.82 L 334.28 37.42 L 333.90 37.81 L 333.79 38.76 L 334.12 40.94 L 334.01 42.01 L 333.41 42.84 L 332.93 43.53 L 331.22 44.56 L 327.53 45.79 L 326.59 45.94 L 324.70 45.89 L 323.92 46.02 L 323.21 46.48 L 321.96 47.88 L 321.27 48.46 L 321.05 47.38 L 320.55 46.21 L 319.89 45.31 L 319.16 45.07 L 318.66 45.02 L 317.87 44.48 L 317.47 44.47 L 317.08 44.80 L 316.98 45.20 L 316.92 45.66 L 316.65 46.15 L 315.87 46.70 L 314.80 47.06 L 313.70 47.22 L 312.78 47.14 L 311.94 46.68 L 311.91 46.04 L 312.71 43.92 L 309.91 43.80 L 309.00 43.37 L 307.56 42.36 L 306.75 42.16 L 305.28 42.90 L 302.06 43.65 L 300.65 43.57 L 300.10 43.75 L 299.86 44.12 L 299.68 44.56 L 299.32 44.95 L 297.67 44.95 L 297.31 43.00 L 297.17 41.18 L 296.15 41.56 L 295.90 42.34 L 295.65 43.46 L 295.16 44.34 L 294.19 44.36 L 293.36 44.23 L 292.62 44.56 L 291.98 45.22 L 291.47 46.03 L 289.76 47.75 L 289.66 47.78 L 287.42 48.40 L 282.95 48.14 L 282.96 48.01 L 283.16 46.39 L 283.08 45.50 L 282.69 44.96 L 280.82 44.26 L 280.23 43.05 L 280.31 41.80 L 280.81 40.58 L 282.81 37.70 L 284.33 36.25 L 285.84 35.30 L 286.67 34.63 L 287.22 33.78 L 287.34 32.60 L 286.92 31.60 L 286.13 30.85 L 285.13 30.45 L 284.05 30.55 L 283.12 30.96 L 282.34 31.18 L 281.67 30.67 L 281.50 29.58 L 281.66 26.68 L 281.19 25.65 L 280.72 25.00 L 279.16 26.08 L 278.21 26.46 L 277.32 26.50 L 276.92 26.59 L 276.46 26.88 L 275.12 28.05 L 274.25 28.50 L 266.22 29.76 L 265.24 30.12 L 263.45 31.31 L 262.49 31.69 L 260.59 31.74 L 259.68 31.92 L 258.80 32.57 L 258.34 33.24 L 257.79 34.70 L 257.40 35.38 L 256.33 36.07 L 254.99 36.46 L 253.82 37.04 L 253.23 37.46 L 252.61 39.96 L 250.85 41.89 L 247.16 44.87 L 246.79 45.51 L 246.57 46.23 L 246.93 48.15 L 246.50 51.18 L 246.50 53.12 L 247.50 55.31 L 248.44 55.89 L 249.12 55.97 L 250.32 55.81 L 256.08 54.12 L 255.35 54.80 L 254.53 55.40 L 253.63 55.81 L 250.43 56.33 L 249.27 56.76 L 249.09 57.52 L 249.19 59.10 L 249.61 60.32 L 249.66 61.55 L 250.01 62.66 L 250.24 64.18 L 250.91 66.23 L 251.05 67.36 L 251.29 68.30 L 251.38 69.70 L 251.98 71.23 L 251.43 73.49 L 251.52 75.43 L 251.52 76.26 L 251.81 77.24 L 252.55 78.45 L 252.74 79.16 L 252.96 79.86 L 253.32 80.04 L 253.56 80.70 L 253.56 82.76 L 253.79 83.60 L 254.08 84.34 L 254.20 85.09 L 253.94 85.99 L 254.92 87.89 L 255.61 90.22 L 256.62 92.07 L 258.56 92.52 L 258.56 92.94 L 257.64 93.87 L 257.59 96.25 L 258.20 100.77 L 258.21 103.25 L 253.23 126.23 L 253.88 125.47 L 254.57 124.02 L 255.13 122.46 L 255.37 121.37 L 255.49 119.68 L 255.85 117.81 L 256.41 116.05 L 257.14 114.68 L 257.41 115.57 L 257.79 115.32 L 258.11 114.40 L 258.20 113.29 L 258.71 114.73 L 256.72 117.46 L 257.14 119.32 L 257.52 119.87 L 258.72 120.39 L 259.00 120.37 L 259.21 120.26 L 260.31 120.04 L 261.62 119.38 L 262.50 119.32 L 261.68 120.09 L 260.88 120.66 L 259.94 121.00 L 258.74 121.12 L 257.77 121.45 L 257.63 122.18 L 258.09 122.98 L 258.91 123.47 L 258.29 124.61 L 257.85 125.10 L 257.33 125.31 L 257.08 125.12 L 256.88 124.76 L 256.58 124.56 L 256.08 124.85 L 255.94 125.23 L 256.06 125.68 L 256.27 126.06 L 256.40 126.23 L 256.40 126.65 L 256.08 126.65 L 255.34 126.21 L 254.59 126.81 L 253.56 128.53 L 253.59 128.08 L 253.56 126.65 L 253.26 126.85 L 253.12 127.06 L 252.45 131.00 L 251.46 134.08 L 250.75 138.29 L 247.27 151.71 L 245.70 154.87 L 245.04 156.76 L 245.13 158.20 L 245.66 159.18 L 246.55 159.76 L 248.93 160.07 L 249.84 160.41 L 250.62 160.99 L 251.46 161.79 L 251.46 162.29 L 249.37 162.20 L 248.51 161.80 L 247.90 160.91 L 247.13 161.88 L 240.63 180.88 L 236.54 191.86 L 236.22 194.42 L 235.57 196.23 L 235.68 197.51 L 235.57 198.68 L 234.50 200.60 L 233.96 201.66 L 233.21 202.94 L 231.72 203.90 L 230.76 204.53 L 230.33 205.28 L 229.16 206.66 L 228.31 208.03 L 229.17 208.85 L 229.56 209.73 L 228.95 210.36 L 228.42 210.21 L 227.77 209.43 L 226.71 209.53 L 225.75 210.39 L 221.92 212.94 L 219.58 212.26 L 218.98 212.45 L 219.38 213.12 L 221.24 215.10 L 221.86 216.43 L 222.56 219.76 L 222.23 221.90 L 222.02 224.45 L 220.95 226.91 L 220.31 228.72 L 218.29 232.46 L 218.08 234.28 L 217.56 235.78 L 218.15 238.33 L 218.28 242.39 L 216.58 247.85 L 215.31 249.18 L 214.68 249.96 L 214.40 250.60 L 214.40 252.05 L 215.06 254.99 L 214.72 256.13 L 214.70 257.49 L 215.74 257.84 L 217.95 257.52 L 219.22 257.73 L 221.52 258.71 L 223.54 260.01 L 224.49 258.83 L 225.44 258.09 L 228.82 258.42 L 231.78 257.89 L 234.42 257.05 L 235.16 255.45 L 234.95 253.85 L 234.85 251.61 L 234.73 250.33 L 235.06 249.22 L 235.61 248.32 L 237.21 246.44 L 240.09 240.62 L 242.61 236.94 L 243.61 235.02 L 244.29 234.44 L 248.78 233.94 L 251.11 232.20 L 252.49 231.17 L 251.99 232.14 L 251.18 233.00 L 249.30 234.44 L 248.31 234.87 L 246.08 235.06 L 245.04 235.32 L 243.23 236.74 L 241.88 238.85 L 239.67 243.61 L 240.14 245.20 L 240.44 246.84 L 240.98 247.92 L 242.19 247.84 L 241.82 248.87 L 242.13 250.26 L 242.74 251.60 L 243.26 252.49 L 243.26 252.91 L 243.02 253.00 L 242.72 253.27 L 242.52 253.41 L 240.65 255.05 L 239.17 256.22 L 238.33 257.06 L 237.55 258.01 L 237.55 258.43 L 236.77 258.52 L 235.13 258.98 L 234.35 259.40 L 234.67 260.78 L 234.35 260.78 L 233.82 259.96 L 232.73 259.28 L 230.51 259.49 L 228.08 259.80 L 227.13 260.33 L 227.87 262.36 L 229.45 264.93 L 230.71 268.02 L 230.71 271.22 L 230.39 273.35 L 228.83 274.94 L 228.45 275.52 L 228.25 275.70 L 228.11 276.12 L 228.10 276.61 L 228.28 276.98 L 228.51 277.00 L 229.85 277.40 L 230.80 277.19 L 231.64 276.55 L 232.70 276.13 L 237.74 275.50 L 240.70 274.23 L 240.28 273.91 L 242.62 271.15 L 245.17 270.66 L 247.16 271.37 L 249.00 272.37 L 250.03 272.66 L 251.28 272.75 L 251.71 272.24 L 251.70 271.13 L 251.16 270.15 L 250.01 269.99 L 250.01 269.57 L 251.04 269.23 L 252.06 267.09 L 252.88 267.23 L 252.54 267.99 L 252.69 268.93 L 253.20 269.71 L 253.94 269.99 L 253.94 270.49 L 253.50 270.82 L 253.23 271.46 L 253.15 272.31 L 253.23 273.26 L 253.53 274.18 L 254.00 274.75 L 257.81 276.59 L 259.16 276.89 L 260.72 276.98 L 258.12 277.84 L 252.91 276.40 L 250.75 276.48 L 250.67 275.61 L 249.54 274.97 L 247.16 274.14 L 245.24 272.42 L 244.05 271.92 L 243.26 272.75 L 244.71 273.33 L 246.60 274.93 L 248.24 276.89 L 249.59 278.32 L 250.93 281.00 L 251.43 284.73 L 251.82 288.99 L 252.01 292.62 L 250.83 296.24 L 249.86 301.04 L 247.16 307.01 L 246.75 307.43 L 246.35 307.63 L 245.99 307.87 L 245.74 308.43 L 247.87 309.80 L 249.60 310.14 L 250.42 311.85 L 250.73 313.46 L 250.82 315.70 L 250.18 319.32 L 249.79 322.75 L 250.22 323.93 L 251.50 323.91 L 252.66 323.60 L 253.16 323.14 L 253.16 323.40 L 252.88 325.02 L 251.39 325.30 L 250.71 325.64 L 250.25 327.36 L 250.01 329.20 L 249.30 332.18 L 249.41 333.06 L 250.10 333.91 L 250.61 334.98 L 250.91 336.58 L 250.79 339.67 L 250.46 341.48 L 249.84 344.50 L 248.94 346.75 L 248.66 348.39 L 247.21 350.09 L 246.37 351.79 L 246.78 352.86 L 247.19 354.03 L 246.44 357.01 L 245.23 358.31 L 244.29 359.23 L 244.77 361.24 L 244.07 362.84 L 243.30 364.69 L 241.27 368.02 L 241.02 368.42 L 240.74 369.36 L 240.38 371.25 L 241.16 370.90 L 241.72 371.27 L 242.29 371.86 L 243.08 372.17 L 243.62 371.96 L 244.66 371.04 L 245.21 370.83 L 245.63 370.49 L 246.57 369.51 L 247.60 369.95 L 248.74 368.88 L 249.96 368.54 L 250.75 368.48 L 251.43 368.16 L 252.77 367.28 L 253.40 367.10 L 256.59 367.10 L 258.24 365.26 L 258.91 364.75 L 259.69 364.52 L 262.11 364.33 L 264.33 364.75 L 267.10 366.35 L 267.20 366.24 L 269.46 367.12 L 271.73 366.82 L 273.28 366.09 L 275.26 366.80 L 277.04 367.46 L 281.21 366.84 L 282.97 366.75 L 284.62 367.54 L 286.74 368.02 L 290.45 370.17 L 292.33 371.80 L 293.49 373.59 L 293.43 373.01 L 293.26 372.58 L 292.74 371.75 L 293.24 372.02 L 293.91 372.45 L 294.47 372.52 L 294.91 371.75 L 295.80 372.12 L 299.01 372.17 L 300.11 372.40 L 300.92 372.77 L 301.67 372.78 L 303.39 371.17 L 311.26 365.59 L 311.67 365.01 L 314.70 362.95 L 315.58 362.63 L 317.68 361.11 L 318.81 360.65 L 319.92 360.53 L 321.12 360.58 L 322.23 360.89 L 323.10 361.58 L 323.48 361.07 L 323.48 360.65 L 323.16 360.52 L 323.01 360.30 L 322.90 360.02 L 322.75 359.69 Z M 294.59 374.01 L 294.59 374.51 L 295.86 374.96 L 297.29 375.00 L 298.61 374.67 L 299.56 374.01 L 299.61 373.82 L 299.92 373.59 L 299.77 373.09 L 299.68 372.87 L 299.56 372.67 L 298.32 373.99 L 297.28 374.40 L 294.59 374.01 Z M 238.13 246.70 L 237.99 246.82 L 237.67 247.09 L 237.08 247.73 L 236.56 248.72 L 236.13 249.90 L 236.47 250.03 L 237.43 249.03 L 238.12 247.94 L 238.47 246.93 L 238.44 246.50 L 238.13 246.70 Z"
        fill="currentColor"
        fill-rule="evenodd"
    />
</svg>
