<svg
    xmlns="http://www.w3.org/2000/svg"
    width="600"
    height="400"
    viewBox="0 0 600 400"
>
    <path
        d="M 300.92 128.58 L 326.02 125.52 L 336.46 128.85 L 342.82 140.79 L 345.35 140.79 L 345.99 139.01 L 348.38 134.53 L 355.54 144.98 L 359.58 147.84 L 365.04 146.74 L 362.10 138.62 L 354.45 123.40 L 351.16 113.63 L 355.72 119.02 L 359.40 126.13 L 363.87 132.22 L 370.83 134.53 L 360.97 113.13 L 356.72 107.65 L 351.37 104.98 L 346.09 105.26 L 334.48 107.65 L 309.51 104.41 L 305.83 104.82 L 302.11 105.83 L 298.25 105.80 L 291.57 101.08 L 288.33 99.75 L 284.85 98.96 L 281.47 98.68 L 282.55 114.81 L 284.02 119.88 L 287.63 127.02 L 290.81 129.51 L 300.92 128.58 Z M 33.36 164.68 L 33.49 173.16 L 32.30 182.38 L 29.52 190.28 L 25.00 194.80 L 25.00 197.53 L 36.91 191.12 L 44.54 175.74 L 44.48 163.01 L 33.36 164.68 Z M 420.84 164.68 L 430.04 177.78 L 435.77 183.59 L 440.52 182.59 L 443.64 171.34 L 439.62 162.30 L 431.83 155.89 L 423.62 152.45 L 413.69 149.62 L 406.56 146.69 L 393.06 137.80 L 392.16 140.39 L 390.82 141.51 L 389.13 142.18 L 387.25 143.50 L 394.30 151.60 L 412.32 159.41 L 420.84 164.68 Z M 83.60 122.87 L 85.96 120.41 L 94.70 113.63 L 93.06 119.33 L 87.95 128.80 L 86.36 134.53 L 84.87 133.71 L 84.42 133.71 L 84.27 133.43 L 83.60 131.54 L 82.80 134.03 L 82.47 135.88 L 82.67 137.88 L 83.60 140.79 L 89.12 139.12 L 92.47 136.06 L 93.49 131.54 L 92.17 125.56 L 106.37 132.22 L 108.85 134.53 L 109.21 139.21 L 106.37 140.12 L 102.53 138.25 L 99.98 134.53 L 97.48 134.53 L 102.05 145.64 L 109.38 144.55 L 125.48 131.54 L 125.48 137.80 L 131.39 136.27 L 141.66 137.77 L 147.70 134.53 L 146.38 133.00 L 145.05 132.38 L 143.66 132.07 L 142.14 131.54 L 153.53 125.56 L 153.92 128.19 L 156.04 134.53 L 159.32 130.36 L 170.16 119.88 L 170.16 116.62 L 161.24 111.42 L 156.84 112.56 L 153.53 117.23 L 147.70 122.87 L 142.37 124.79 L 134.46 126.16 L 126.49 126.20 L 121.09 124.20 L 95.51 100.44 L 86.36 95.97 L 86.64 103.43 L 82.39 117.16 L 83.60 122.87 Z M 211.81 77.53 L 215.45 79.60 L 220.08 80.52 L 224.02 79.60 L 225.68 76.14 L 235.37 64.93 L 242.06 60.98 L 245.14 68.56 L 243.58 73.79 L 237.33 84.01 L 236.80 89.74 L 239.34 94.01 L 243.93 97.86 L 248.78 100.60 L 252.19 101.70 L 257.48 104.41 L 263.59 109.22 L 270.64 110.91 L 278.73 104.41 L 266.05 103.09 L 260.03 94.19 L 256.49 68.56 L 257.84 61.83 L 256.92 58.36 L 252.19 56.88 L 249.01 56.38 L 243.51 54.14 L 241.10 53.64 L 217.37 53.64 L 213.65 54.64 L 210.39 56.54 L 207.80 59.21 L 206.00 62.58 L 210.57 65.30 L 210.78 69.15 L 210.12 73.42 L 211.81 77.53 Z M 571.26 248.58 L 568.25 256.70 L 566.01 266.41 L 565.73 276.15 L 568.50 284.45 L 573.08 277.95 L 575.00 266.68 L 574.40 255.36 L 571.26 248.58 Z M 347.70 342.12 L 343.12 345.56 L 344.42 346.36 L 351.44 342.51 L 353.29 339.17 L 350.74 340.09 L 347.70 342.12 Z M 369.44 333.81 L 366.80 340.73 L 369.31 344.43 L 371.93 337.55 L 371.69 331.37 L 369.44 333.81 Z M 542.09 323.93 L 540.28 327.67 L 538.26 335.75 L 540.51 337.39 L 545.58 331.94 L 549.14 326.71 L 546.06 324.07 L 542.09 323.93 Z M 424.78 224.17 L 423.44 224.32 L 420.51 231.93 L 420.44 242.37 L 417.68 244.61 L 412.77 243.90 L 407.93 247.30 L 408.79 254.77 L 415.55 259.21 L 422.35 257.14 L 425.57 251.30 L 425.23 241.30 L 425.61 226.79 L 424.78 224.17 Z M 169.94 99.39 L 166.63 102.45 L 170.16 102.79 L 173.45 99.78 L 172.14 97.97 L 169.94 99.39 Z M 182.19 87.20 L 179.44 91.95 L 180.20 95.05 L 182.92 93.91 L 185.33 91.47 L 185.35 87.89 L 184.34 85.92 L 182.19 87.20 Z"
        fill="currentColor"
        fill-rule="evenodd"
    />
</svg>
