<svg
    xmlns="http://www.w3.org/2000/svg"
    width="600"
    height="400"
    viewBox="0 0 600 400"
>
    <path
        d="M 201.85 251.93 L 209.30 251.86 L 209.67 252.09 L 210.63 253.62 L 210.65 253.66 L 210.95 253.99 L 211.13 254.31 L 211.19 254.67 L 211.16 255.12 L 210.83 256.12 L 210.82 256.40 L 211.04 256.72 L 211.69 257.22 L 212.06 257.61 L 212.06 258.44 L 212.11 258.63 L 212.19 258.74 L 212.31 258.75 L 212.49 258.68 L 212.49 258.90 L 212.52 259.10 L 212.62 259.22 L 212.82 259.19 L 213.22 258.87 L 213.36 258.84 L 213.53 258.90 L 213.57 259.02 L 213.58 259.15 L 213.65 259.28 L 214.02 259.52 L 214.16 259.65 L 214.50 259.85 L 215.12 259.68 L 215.46 259.80 L 215.60 260.16 L 215.29 260.88 L 215.54 261.24 L 215.86 260.70 L 215.97 260.63 L 216.16 260.70 L 216.35 260.88 L 216.49 261.10 L 216.55 261.31 L 216.70 261.66 L 217.07 261.71 L 217.76 261.54 L 218.01 261.99 L 218.71 264.68 L 218.63 264.80 L 218.46 265.13 L 218.42 265.28 L 218.41 265.52 L 218.44 265.56 L 218.53 265.57 L 218.71 265.74 L 218.67 265.63 L 218.75 265.62 L 218.89 265.66 L 218.99 265.74 L 219.02 265.82 L 218.98 266.08 L 218.99 266.17 L 219.28 266.71 L 219.64 268.37 L 219.60 268.56 L 219.57 270.09 L 219.54 270.35 L 219.43 270.72 L 219.43 270.98 L 219.49 271.14 L 219.59 271.24 L 219.68 271.36 L 219.71 271.58 L 219.63 271.73 L 219.47 271.76 L 219.36 271.86 L 219.43 272.18 L 219.54 272.33 L 220.08 272.71 L 220.54 273.26 L 220.84 273.50 L 221.09 273.46 L 221.45 273.19 L 221.83 273.15 L 222.22 273.31 L 222.62 273.67 L 222.52 273.81 L 222.44 274.04 L 222.44 274.30 L 222.54 274.51 L 222.70 274.69 L 222.71 274.83 L 222.66 274.99 L 222.62 275.26 L 222.84 275.58 L 223.20 275.90 L 223.29 276.14 L 222.69 276.24 L 222.60 276.34 L 222.65 276.55 L 222.75 276.78 L 222.83 276.91 L 222.92 277.11 L 222.77 277.31 L 222.57 277.49 L 222.47 277.66 L 222.51 278.21 L 222.66 278.55 L 222.90 278.73 L 223.26 278.78 L 223.40 279.02 L 223.92 280.28 L 223.80 280.50 L 223.46 280.83 L 223.34 281.04 L 223.38 281.13 L 223.60 281.34 L 223.63 281.48 L 223.54 281.59 L 223.40 281.60 L 223.26 281.60 L 223.19 281.62 L 223.02 282.09 L 222.98 282.51 L 223.04 282.95 L 223.38 283.93 L 223.60 284.32 L 224.19 285.09 L 224.44 285.79 L 224.16 286.40 L 223.19 287.49 L 222.99 287.88 L 222.86 288.30 L 222.73 289.44 L 222.62 289.78 L 222.62 290.03 L 222.69 290.19 L 222.80 290.29 L 222.89 290.41 L 222.91 290.63 L 222.77 290.99 L 222.28 291.72 L 222.18 292.06 L 222.03 293.42 L 222.19 295.66 L 222.32 297.53 L 222.90 298.93 L 223.11 299.26 L 223.25 299.64 L 223.18 300.18 L 222.91 301.12 L 222.97 301.94 L 224.58 305.14 L 224.74 305.66 L 224.71 306.01 L 224.50 306.39 L 224.37 306.93 L 224.36 307.47 L 224.50 307.88 L 224.63 308.00 L 224.82 308.10 L 225.05 308.16 L 225.29 308.18 L 225.52 308.23 L 225.66 308.33 L 225.76 308.43 L 226.19 308.64 L 226.37 309.01 L 226.67 309.83 L 226.97 310.17 L 227.25 310.41 L 227.45 310.67 L 227.53 311.10 L 227.58 311.66 L 227.71 312.10 L 227.94 312.48 L 230.85 315.25 L 231.63 316.40 L 231.93 316.58 L 231.92 316.67 L 232.89 317.54 L 234.30 318.41 L 235.04 318.65 L 235.95 319.49 L 235.58 319.61 L 230.85 320.80 L 229.66 320.83 L 226.11 319.65 L 224.86 319.60 L 223.89 319.71 L 223.70 319.76 L 223.47 319.91 L 223.09 320.27 L 222.87 320.41 L 222.28 320.55 L 221.63 320.51 L 220.40 320.20 L 219.43 320.17 L 216.78 321.02 L 215.94 320.97 L 209.78 319.41 L 204.62 319.76 L 204.31 319.78 L 204.14 319.85 L 204.09 320.01 L 204.08 320.23 L 204.03 320.45 L 203.01 322.54 L 202.35 323.47 L 200.62 325.01 L 199.34 326.91 L 199.38 327.23 L 201.25 328.74 L 207.26 335.87 L 207.47 336.81 L 207.86 337.51 L 212.54 341.39 L 217.23 345.27 L 217.57 345.38 L 217.76 345.32 L 217.95 345.28 L 218.14 345.29 L 218.33 345.33 L 218.62 345.50 L 219.46 346.13 L 219.64 346.34 L 219.75 346.61 L 219.89 346.72 L 220.05 346.77 L 220.20 346.91 L 220.32 347.11 L 220.51 347.67 L 220.56 347.93 L 220.56 348.14 L 220.63 348.28 L 220.92 348.37 L 221.70 348.49 L 222.24 348.66 L 222.68 348.99 L 223.03 349.43 L 223.92 350.93 L 225.14 352.17 L 225.46 352.59 L 226.03 353.85 L 228.87 360.11 L 230.16 364.80 L 230.88 366.60 L 231.87 367.35 L 232.33 367.37 L 232.99 367.53 L 233.46 367.63 L 233.44 369.86 L 233.16 371.16 L 232.59 372.36 L 231.73 373.52 L 232.46 373.76 L 233.23 373.81 L 234.76 373.60 L 235.69 373.67 L 236.77 374.71 L 237.58 375.00 L 238.33 374.95 L 241.10 374.29 L 241.48 374.13 L 242.17 373.69 L 242.48 373.38 L 242.94 372.71 L 243.23 372.39 L 243.59 372.19 L 244.05 372.03 L 245.40 371.85 L 246.11 371.60 L 246.59 371.60 L 247.05 371.54 L 247.47 371.28 L 248.20 370.70 L 248.64 370.52 L 250.50 370.25 L 250.76 370.07 L 250.85 369.77 L 250.84 368.28 L 250.95 367.82 L 251.27 367.55 L 251.50 367.55 L 251.69 367.65 L 251.91 367.72 L 252.19 367.63 L 252.33 367.47 L 252.58 366.90 L 252.72 366.68 L 253.05 366.38 L 253.42 366.18 L 254.26 365.93 L 254.29 366.11 L 254.30 366.31 L 254.29 366.51 L 254.17 367.18 L 254.27 367.58 L 254.50 367.90 L 254.84 368.17 L 255.06 368.26 L 255.26 368.31 L 255.45 368.40 L 255.61 368.59 L 255.72 368.90 L 255.68 369.13 L 255.59 369.35 L 255.55 369.61 L 255.64 370.10 L 255.86 370.33 L 256.67 370.58 L 257.17 370.84 L 257.66 371.23 L 258.43 372.13 L 258.90 372.93 L 259.19 373.13 L 259.67 373.07 L 259.83 372.98 L 259.88 372.94 L 260.33 372.55 L 260.39 372.55 L 260.62 372.58 L 260.69 372.55 L 260.74 372.38 L 260.66 372.27 L 260.57 372.17 L 260.55 372.02 L 260.71 371.59 L 260.94 371.30 L 261.26 371.12 L 262.08 370.87 L 262.99 370.73 L 263.40 370.77 L 263.54 370.51 L 263.73 370.38 L 263.95 370.36 L 264.60 370.47 L 264.67 370.37 L 264.64 370.19 L 264.74 369.98 L 265.03 369.73 L 265.45 369.87 L 265.68 370.00 L 265.79 370.13 L 265.93 370.14 L 266.23 369.94 L 266.64 369.54 L 267.38 368.61 L 267.76 368.25 L 267.92 368.22 L 268.09 368.25 L 268.23 368.15 L 268.30 367.75 L 268.43 367.50 L 268.71 367.22 L 268.73 367.21 L 269.07 366.96 L 271.92 365.92 L 272.34 365.64 L 272.62 365.31 L 273.62 365.62 L 273.87 365.45 L 274.06 364.96 L 274.40 364.70 L 274.83 364.59 L 275.59 364.51 L 276.03 364.38 L 276.44 364.17 L 276.87 363.55 L 277.28 363.41 L 277.74 363.38 L 278.12 363.41 L 281.02 363.91 L 281.90 363.95 L 282.72 363.79 L 284.40 363.14 L 286.36 362.66 L 295.60 362.41 L 297.31 362.03 L 297.91 361.11 L 297.93 360.05 L 298.35 359.19 L 299.07 358.54 L 299.96 358.08 L 301.20 357.64 L 301.57 357.45 L 302.03 357.03 L 302.91 355.64 L 303.60 354.96 L 303.89 354.58 L 304.08 354.04 L 304.30 353.62 L 306.41 351.14 L 307.27 349.39 L 307.50 349.25 L 307.70 349.13 L 307.91 348.79 L 308.59 348.31 L 308.17 347.80 L 307.53 347.31 L 307.19 347.11 L 307.00 346.76 L 304.48 345.65 L 304.23 345.46 L 304.13 345.17 L 304.07 344.80 L 303.93 344.59 L 303.58 344.79 L 303.23 344.49 L 303.23 344.17 L 303.71 343.43 L 303.90 343.51 L 304.09 343.51 L 304.24 343.41 L 304.30 343.21 L 304.35 342.98 L 304.47 342.91 L 304.63 342.87 L 304.96 342.68 L 305.38 342.55 L 305.47 342.46 L 305.52 342.30 L 305.65 342.15 L 305.96 341.86 L 306.44 341.52 L 307.26 341.10 L 308.10 340.86 L 308.65 341.04 L 308.79 341.04 L 308.97 341.00 L 309.54 341.14 L 309.66 341.11 L 309.77 340.86 L 310.03 340.75 L 310.89 340.70 L 311.32 340.58 L 311.53 340.57 L 311.78 340.71 L 312.00 340.91 L 312.21 340.98 L 312.41 340.74 L 312.65 340.91 L 313.01 341.05 L 313.41 341.15 L 313.77 341.18 L 314.05 341.12 L 314.86 340.81 L 315.05 340.91 L 316.66 340.89 L 316.77 340.92 L 316.86 340.99 L 316.97 341.00 L 317.18 340.89 L 317.66 340.90 L 318.28 340.64 L 318.92 340.50 L 319.48 340.89 L 319.82 340.73 L 320.74 340.74 L 320.93 340.65 L 321.04 340.55 L 321.55 340.33 L 321.73 340.29 L 321.98 340.27 L 322.53 340.13 L 322.97 340.07 L 324.74 340.18 L 325.01 340.06 L 325.27 339.68 L 325.57 339.82 L 325.64 339.81 L 325.88 339.75 L 326.42 339.38 L 326.58 339.35 L 326.77 339.37 L 326.93 339.34 L 327.00 339.16 L 327.01 339.03 L 327.06 338.91 L 327.14 338.82 L 327.22 338.78 L 327.38 338.86 L 327.45 339.20 L 327.59 339.23 L 327.71 339.14 L 327.71 339.03 L 327.67 338.90 L 327.73 338.78 L 328.35 338.25 L 328.52 338.17 L 328.70 338.20 L 328.99 338.32 L 329.17 338.33 L 329.19 338.26 L 329.18 338.10 L 329.21 337.95 L 329.39 337.88 L 329.55 338.00 L 329.73 338.26 L 329.98 338.53 L 330.34 338.64 L 330.65 338.55 L 331.25 338.12 L 331.56 338.02 L 331.78 338.09 L 332.02 338.25 L 332.50 338.64 L 332.91 338.55 L 334.66 338.64 L 335.06 338.56 L 335.18 338.49 L 335.58 338.19 L 335.78 338.08 L 336.00 338.06 L 336.26 338.17 L 336.68 337.71 L 336.94 337.16 L 337.24 336.71 L 337.78 336.52 L 337.90 336.29 L 337.68 335.78 L 337.54 335.26 L 337.92 335.03 L 338.18 334.98 L 338.33 334.85 L 338.41 334.64 L 338.43 334.36 L 338.51 334.15 L 338.70 334.18 L 339.15 334.45 L 339.18 334.43 L 339.57 334.45 L 339.58 334.45 L 339.94 334.56 L 340.08 334.58 L 341.17 334.58 L 340.89 333.69 L 341.76 333.24 L 342.71 332.94 L 342.91 332.77 L 343.07 332.94 L 343.25 332.73 L 343.34 332.48 L 343.46 332.27 L 343.71 332.18 L 343.79 332.13 L 343.92 331.92 L 343.99 331.88 L 344.09 331.93 L 344.23 332.02 L 344.25 332.02 L 344.38 332.08 L 344.50 332.04 L 344.64 331.62 L 344.68 331.07 L 344.83 330.59 L 345.30 330.38 L 345.52 330.19 L 346.33 329.28 L 346.51 328.96 L 346.59 328.72 L 346.79 328.56 L 347.24 328.29 L 347.34 328.10 L 347.38 327.91 L 347.49 327.83 L 347.82 327.98 L 347.79 327.69 L 347.75 327.62 L 347.66 327.53 L 347.66 327.38 L 347.96 327.28 L 348.09 327.00 L 348.11 326.26 L 348.17 325.93 L 348.47 325.33 L 348.54 324.92 L 348.59 324.82 L 348.71 324.70 L 348.86 324.60 L 348.97 324.54 L 349.00 324.51 L 349.02 324.45 L 349.07 324.40 L 349.19 324.38 L 349.29 324.43 L 349.49 324.64 L 349.56 324.68 L 349.72 324.61 L 349.87 324.50 L 350.14 324.24 L 350.22 324.22 L 350.32 324.24 L 350.39 324.25 L 350.43 324.16 L 350.41 323.86 L 350.43 323.78 L 350.74 322.98 L 350.96 322.60 L 352.12 321.82 L 352.30 321.77 L 352.36 321.43 L 352.51 321.12 L 353.59 319.83 L 353.90 319.58 L 354.19 319.77 L 355.05 320.12 L 355.34 320.18 L 356.07 319.89 L 356.76 319.18 L 357.32 318.29 L 358.42 315.71 L 359.00 314.91 L 359.67 314.49 L 359.87 314.52 L 360.13 314.61 L 360.40 314.66 L 360.62 314.56 L 360.69 314.61 L 361.37 314.39 L 361.48 314.32 L 362.02 314.19 L 362.29 313.85 L 362.46 313.41 L 362.71 312.98 L 362.89 312.90 L 363.13 312.88 L 363.34 312.81 L 363.43 312.60 L 363.41 312.43 L 363.32 312.10 L 363.30 311.86 L 363.37 311.40 L 364.02 310.29 L 363.86 310.13 L 363.84 309.98 L 363.88 309.84 L 363.88 309.69 L 363.74 309.50 L 363.37 309.06 L 363.30 308.85 L 363.25 308.50 L 363.06 307.66 L 363.01 307.21 L 363.06 306.79 L 363.25 306.14 L 363.30 305.71 L 363.42 305.37 L 363.71 305.16 L 364.07 305.06 L 364.39 305.03 L 364.51 304.96 L 364.60 304.81 L 364.73 304.65 L 364.95 304.58 L 365.13 304.56 L 365.53 304.44 L 365.75 304.42 L 366.16 304.63 L 366.39 304.68 L 366.49 304.50 L 366.57 304.47 L 367.06 304.00 L 367.70 303.54 L 368.07 303.36 L 369.35 303.03 L 369.58 302.79 L 369.37 302.33 L 369.51 302.03 L 369.66 301.57 L 369.89 301.16 L 370.30 300.98 L 372.07 301.17 L 372.40 301.12 L 372.99 301.44 L 373.28 300.97 L 373.50 300.29 L 374.11 299.78 L 374.34 299.47 L 374.61 299.27 L 374.94 299.40 L 375.11 299.42 L 375.33 299.25 L 375.73 298.89 L 376.00 298.74 L 376.43 298.56 L 376.89 298.43 L 376.97 298.42 L 377.54 298.32 L 377.86 298.22 L 378.12 298.05 L 378.51 297.60 L 378.71 297.45 L 378.99 297.39 L 379.32 297.46 L 379.63 297.56 L 379.88 297.58 L 380.07 297.39 L 380.55 297.84 L 381.00 297.87 L 381.45 297.74 L 381.95 297.68 L 382.12 297.74 L 382.53 297.94 L 382.74 297.98 L 383.47 297.96 L 383.68 297.98 L 384.46 298.19 L 384.99 298.64 L 386.28 299.07 L 387.44 299.18 L 388.27 296.10 L 388.40 295.88 L 388.73 295.51 L 388.79 295.27 L 388.80 294.83 L 388.87 294.39 L 389.00 294.00 L 389.36 293.23 L 389.45 292.84 L 389.41 292.21 L 389.39 291.92 L 388.86 290.30 L 388.57 288.74 L 388.27 288.48 L 387.77 288.46 L 385.77 288.68 L 385.56 288.59 L 385.55 287.93 L 385.49 287.73 L 384.95 287.21 L 383.25 286.62 L 382.52 286.25 L 381.77 285.51 L 381.12 284.59 L 380.70 283.56 L 380.60 282.51 L 381.78 275.77 L 382.15 274.66 L 382.22 274.27 L 382.19 273.93 L 382.09 273.82 L 381.91 274.14 L 381.63 273.96 L 380.80 274.11 L 379.43 274.55 L 379.20 274.73 L 379.07 274.80 L 378.94 274.86 L 379.48 272.45 L 379.50 272.18 L 379.48 271.92 L 379.43 271.66 L 377.88 266.77 L 377.18 265.65 L 377.14 265.39 L 377.62 264.66 L 378.68 262.15 L 378.40 261.87 L 376.24 261.04 L 373.59 259.25 L 372.99 260.17 L 372.31 260.83 L 371.51 261.29 L 370.51 261.59 L 369.69 261.70 L 368.79 261.69 L 367.92 261.52 L 367.18 261.15 L 366.74 260.72 L 365.91 259.13 L 365.34 258.40 L 365.25 258.15 L 365.30 258.01 L 365.64 257.33 L 366.17 255.70 L 367.90 252.34 L 368.51 251.48 L 369.24 250.77 L 369.61 250.56 L 371.88 249.65 L 372.22 249.40 L 374.17 247.31 L 374.92 246.31 L 375.09 245.40 L 374.84 244.90 L 374.10 243.98 L 373.82 243.45 L 373.73 243.03 L 373.71 241.77 L 373.40 240.93 L 372.06 239.65 L 371.68 238.81 L 371.68 238.32 L 371.73 237.98 L 371.65 237.66 L 371.32 237.22 L 370.83 236.75 L 370.85 236.55 L 371.37 235.70 L 373.09 233.48 L 373.29 233.21 L 373.80 232.69 L 374.41 232.28 L 377.76 230.66 L 378.17 230.38 L 378.95 229.64 L 379.43 229.37 L 379.99 229.26 L 380.49 229.06 L 380.80 228.69 L 380.83 228.04 L 380.68 227.34 L 380.49 226.91 L 380.12 226.68 L 378.93 226.46 L 378.58 226.27 L 378.32 225.95 L 378.13 225.48 L 378.07 225.22 L 378.09 225.05 L 378.28 224.67 L 378.37 224.58 L 378.66 224.45 L 378.76 224.34 L 378.79 224.17 L 378.71 224.05 L 378.61 223.93 L 378.54 223.80 L 378.24 221.45 L 378.07 221.15 L 377.42 220.66 L 376.94 219.85 L 377.34 219.07 L 378.19 218.41 L 379.09 217.97 L 383.33 216.82 L 383.55 216.66 L 383.65 216.36 L 383.61 216.16 L 383.29 215.46 L 383.18 215.08 L 383.00 213.88 L 383.00 213.31 L 383.17 212.97 L 383.95 212.45 L 384.36 212.06 L 384.48 211.69 L 384.50 211.28 L 384.62 210.75 L 384.86 210.30 L 386.76 208.29 L 387.18 207.94 L 387.66 207.67 L 388.38 207.39 L 388.54 207.19 L 389.48 205.44 L 389.65 204.95 L 389.91 202.41 L 389.87 201.67 L 389.66 200.99 L 389.21 200.37 L 388.76 199.88 L 388.41 199.32 L 388.25 198.69 L 388.40 198.00 L 388.80 197.51 L 390.47 196.47 L 391.82 194.82 L 392.37 194.44 L 392.89 194.37 L 393.89 194.25 L 397.13 194.94 L 398.72 194.79 L 401.49 193.76 L 402.88 193.46 L 405.30 193.46 L 407.86 193.85 L 410.32 194.70 L 410.89 194.73 L 411.14 194.07 L 411.14 194.05 L 411.14 192.79 L 411.14 187.70 L 411.13 182.62 L 411.13 177.53 L 411.13 172.45 L 411.12 167.36 L 411.12 162.28 L 411.11 157.19 L 411.11 152.11 L 411.11 147.02 L 411.10 141.94 L 411.09 136.86 L 411.09 131.77 L 411.09 126.69 L 411.08 121.60 L 411.08 116.52 L 411.07 111.43 L 408.47 110.10 L 405.86 108.76 L 403.26 107.43 L 400.65 106.09 L 398.05 104.76 L 395.44 103.42 L 392.83 102.09 L 390.23 100.75 L 387.62 99.42 L 385.01 98.08 L 382.41 96.75 L 379.80 95.41 L 377.20 94.08 L 374.59 92.74 L 371.99 91.41 L 369.38 90.07 L 366.77 88.74 L 364.17 87.40 L 361.56 86.07 L 358.95 84.73 L 356.35 83.40 L 353.74 82.06 L 351.13 80.72 L 348.53 79.39 L 345.92 78.06 L 343.32 76.72 L 340.71 75.39 L 338.10 74.05 L 335.50 72.71 L 332.89 71.38 L 330.29 70.05 L 327.68 68.71 L 325.08 67.38 L 322.47 66.04 L 319.86 64.70 L 317.26 63.37 L 314.65 62.03 L 312.04 60.70 L 309.90 59.60 L 309.44 59.36 L 306.83 58.03 L 304.23 56.69 L 301.62 55.36 L 299.01 54.02 L 296.41 52.69 L 293.80 51.35 L 291.20 50.02 L 288.59 48.68 L 285.98 47.35 L 283.38 46.01 L 280.77 44.68 L 278.17 43.34 L 275.56 42.01 L 272.95 40.67 L 270.35 39.34 L 267.74 38.00 L 265.13 36.67 L 262.53 35.33 L 259.92 34.00 L 257.32 32.66 L 254.71 31.33 L 252.11 29.99 L 249.50 28.66 L 246.89 27.32 L 244.29 25.99 L 242.36 25.00 L 241.93 25.05 L 241.00 25.50 L 239.78 26.07 L 238.56 26.64 L 237.34 27.21 L 236.13 27.78 L 234.91 28.36 L 233.70 28.93 L 232.48 29.50 L 231.26 30.07 L 230.04 30.65 L 228.83 31.22 L 227.61 31.79 L 226.39 32.36 L 225.17 32.93 L 223.96 33.51 L 222.75 34.08 L 221.53 34.65 L 221.16 34.83 L 221.41 36.20 L 221.66 37.57 L 221.91 38.94 L 222.17 40.31 L 222.42 41.68 L 222.68 43.06 L 222.93 44.43 L 223.18 45.80 L 223.44 47.17 L 223.69 48.54 L 223.94 49.91 L 224.20 51.28 L 224.45 52.66 L 224.71 54.03 L 224.88 54.96 L 225.05 55.89 L 225.21 56.77 L 225.22 57.20 L 225.24 58.34 L 225.26 59.95 L 225.29 61.80 L 225.33 63.65 L 225.35 65.26 L 225.37 66.40 L 225.38 66.84 L 225.39 67.41 L 225.47 67.76 L 225.80 68.08 L 226.80 68.59 L 227.20 68.87 L 227.93 69.73 L 228.43 70.49 L 228.78 71.02 L 229.14 71.56 L 229.49 72.10 L 229.85 72.63 L 230.20 73.17 L 230.55 73.70 L 230.91 74.24 L 231.26 74.78 L 231.61 75.31 L 231.97 75.85 L 232.32 76.39 L 232.67 76.92 L 233.03 77.46 L 233.38 77.99 L 233.74 78.53 L 234.09 79.07 L 234.44 79.59 L 233.59 80.07 L 233.06 80.92 L 232.89 81.93 L 233.06 82.91 L 233.31 83.47 L 233.61 83.95 L 233.99 84.36 L 235.70 85.70 L 236.29 86.33 L 237.52 87.66 L 238.75 89.00 L 239.98 90.33 L 241.21 91.66 L 241.71 92.21 L 242.01 92.68 L 242.05 93.04 L 241.90 93.42 L 241.47 94.19 L 240.62 95.70 L 239.77 97.21 L 238.93 98.72 L 238.09 100.23 L 237.77 100.80 L 237.11 102.52 L 237.03 103.43 L 236.95 104.43 L 236.86 105.43 L 236.78 106.42 L 236.69 107.42 L 236.61 108.42 L 236.52 109.42 L 236.44 110.42 L 236.35 111.42 L 236.27 112.42 L 236.18 113.41 L 236.10 114.41 L 236.01 115.41 L 235.93 116.41 L 235.84 117.41 L 235.76 118.41 L 235.67 119.41 L 235.58 120.41 L 235.50 121.40 L 235.41 122.40 L 235.33 123.40 L 235.24 124.40 L 235.16 125.40 L 235.07 126.40 L 234.99 127.40 L 234.90 128.39 L 234.82 129.39 L 234.73 130.39 L 234.65 131.39 L 234.56 132.39 L 234.48 133.39 L 234.39 134.39 L 234.31 135.38 L 234.22 136.38 L 234.14 137.38 L 234.05 138.38 L 233.97 139.38 L 233.88 140.38 L 233.80 141.38 L 233.71 142.37 L 233.63 143.37 L 233.56 144.18 L 233.54 144.37 L 233.46 145.37 L 233.37 146.37 L 233.29 147.37 L 233.20 148.37 L 233.12 149.37 L 233.03 150.36 L 232.94 151.36 L 232.86 152.36 L 232.78 153.36 L 232.69 154.36 L 232.61 155.36 L 232.52 156.36 L 232.44 157.36 L 232.35 158.35 L 232.26 159.35 L 232.18 160.35 L 232.09 161.35 L 232.01 162.35 L 231.92 163.35 L 231.84 164.35 L 231.76 165.35 L 231.67 166.34 L 231.58 167.34 L 231.54 167.90 L 231.47 168.16 L 231.40 168.38 L 231.13 168.78 L 230.41 169.56 L 229.23 170.83 L 228.04 172.11 L 226.86 173.39 L 225.67 174.66 L 224.49 175.94 L 223.31 177.22 L 222.12 178.50 L 220.94 179.77 L 219.76 181.05 L 218.57 182.32 L 217.39 183.60 L 216.21 184.88 L 215.02 186.16 L 213.84 187.43 L 212.65 188.71 L 211.47 189.99 L 210.65 190.87 L 209.42 192.20 L 208.27 193.44 L 207.66 194.30 L 207.04 195.19 L 206.40 196.08 L 205.78 196.97 L 205.15 197.86 L 204.52 198.75 L 203.89 199.65 L 203.26 200.54 L 202.63 201.43 L 202.00 202.32 L 201.37 203.21 L 200.74 204.10 L 200.11 204.99 L 199.48 205.89 L 198.85 206.78 L 198.22 207.67 L 197.59 208.56 L 196.98 209.42 L 196.43 210.61 L 195.74 212.10 L 195.43 212.78 L 195.32 213.20 L 195.29 213.66 L 195.37 214.11 L 195.67 215.04 L 195.70 215.49 L 195.51 216.00 L 195.19 216.17 L 194.79 216.21 L 194.36 216.31 L 194.15 216.47 L 193.48 217.23 L 193.06 217.53 L 192.99 217.64 L 193.02 217.75 L 193.24 217.96 L 193.31 218.09 L 193.45 218.93 L 193.43 219.33 L 193.26 219.73 L 192.55 220.33 L 192.21 220.40 L 191.71 220.50 L 190.86 220.57 L 190.10 220.89 L 189.56 221.16 L 188.87 222.13 L 188.86 223.42 L 189.26 224.94 L 189.56 226.06 L 189.78 227.06 L 189.93 227.76 L 190.08 228.46 L 190.23 229.16 L 190.38 229.85 L 190.53 230.55 L 190.68 231.25 L 190.84 231.94 L 190.99 232.64 L 191.14 233.34 L 191.29 234.04 L 191.44 234.73 L 191.59 235.43 L 191.74 236.13 L 191.89 236.83 L 192.05 237.52 L 192.20 238.22 L 197.02 245.07 L 201.85 251.93 Z"
        fill="currentColor"
        fill-rule="evenodd"
    />
</svg>
