<svg
    xmlns="http://www.w3.org/2000/svg"
    width="600"
    height="400"
    viewBox="0 0 600 400"
>
    <path
        d="M 394.90 34.03 L 394.88 32.65 L 395.11 30.96 L 394.87 30.14 L 394.34 29.49 L 393.50 28.73 L 392.64 28.11 L 392.01 27.85 L 391.62 27.94 L 390.82 28.27 L 390.30 28.27 L 389.93 28.11 L 389.15 27.51 L 387.59 27.20 L 385.88 27.12 L 385.40 27.32 L 384.75 27.78 L 383.63 28.86 L 383.10 29.08 L 380.72 29.38 L 379.15 28.70 L 378.25 28.49 L 377.49 28.86 L 376.87 29.03 L 375.90 28.87 L 374.22 28.27 L 373.65 28.80 L 373.01 29.03 L 372.30 28.98 L 371.52 28.65 L 371.04 29.33 L 369.93 29.09 L 368.66 28.54 L 367.70 28.27 L 367.00 28.56 L 366.36 29.08 L 365.58 29.57 L 364.44 29.80 L 356.88 28.67 L 355.54 28.18 L 354.66 27.51 L 353.35 27.81 L 352.38 27.51 L 349.26 26.49 L 347.11 26.34 L 344.03 27.05 L 343.02 26.84 L 341.19 25.72 L 340.50 25.47 L 339.97 25.53 L 338.80 26.16 L 338.22 26.31 L 337.11 26.47 L 334.96 27.19 L 333.85 27.40 L 331.42 27.30 L 329.16 26.94 L 328.15 26.90 L 324.86 27.15 L 320.63 26.89 L 316.35 27.26 L 311.45 27.11 L 309.55 27.37 L 308.69 27.27 L 305.82 26.33 L 304.68 25.40 L 304.13 25.08 L 303.35 25.00 L 302.65 25.16 L 301.19 25.68 L 286.27 26.23 L 286.16 26.73 L 286.42 27.46 L 286.51 28.20 L 286.17 28.99 L 285.74 29.58 L 285.39 30.22 L 285.29 31.13 L 285.29 31.83 L 285.19 32.52 L 284.97 33.17 L 284.61 33.76 L 285.04 35.91 L 285.06 40.40 L 285.15 55.05 L 285.17 57.98 L 285.24 69.70 L 285.32 84.35 L 285.41 99.00 L 268.66 98.94 L 264.58 98.93 L 251.92 98.89 L 235.19 98.83 L 233.90 98.82 L 218.44 98.78 L 212.34 98.75 L 210.72 98.96 L 209.62 99.11 L 209.32 99.92 L 209.32 101.58 L 209.12 102.31 L 208.46 102.95 L 207.57 103.15 L 206.57 103.00 L 205.59 102.58 L 204.66 101.86 L 203.21 100.20 L 202.29 99.55 L 201.42 99.23 L 199.76 99.04 L 199.54 99.74 L 199.08 100.69 L 198.57 99.51 L 198.10 97.11 L 197.35 95.89 L 196.44 95.61 L 193.18 95.52 L 192.18 95.70 L 191.63 96.27 L 191.24 97.03 L 190.70 97.70 L 189.72 97.98 L 188.71 97.98 L 187.89 98.15 L 187.15 98.70 L 186.45 99.89 L 186.18 101.03 L 186.49 101.68 L 186.96 102.26 L 187.21 103.16 L 187.37 104.50 L 189.35 109.75 L 189.92 116.38 L 189.73 119.12 L 189.92 120.27 L 190.68 121.38 L 190.24 122.27 L 189.67 124.70 L 189.31 125.20 L 188.81 125.61 L 188.54 126.61 L 188.53 127.75 L 188.77 128.63 L 187.82 128.42 L 187.37 127.93 L 186.84 126.34 L 187.32 125.50 L 187.61 123.90 L 187.51 122.28 L 186.84 121.38 L 186.75 122.12 L 186.46 122.69 L 185.97 123.07 L 185.31 123.29 L 184.97 121.80 L 183.66 121.08 L 182.02 120.98 L 180.73 121.38 L 181.50 120.25 L 182.69 120.10 L 185.12 120.62 L 186.05 120.11 L 186.25 118.96 L 185.84 117.67 L 184.92 116.76 L 183.86 116.64 L 182.87 117.07 L 181.99 117.63 L 180.97 118.03 L 180.21 118.55 L 179.75 118.67 L 178.99 118.57 L 178.49 118.36 L 178.01 118.23 L 177.26 118.32 L 176.69 118.56 L 175.55 119.21 L 174.92 119.47 L 173.66 119.73 L 172.45 119.85 L 172.05 120.53 L 171.83 123.61 L 171.87 124.43 L 172.62 125.31 L 173.49 125.35 L 174.48 125.27 L 175.52 125.78 L 177.08 127.54 L 177.79 128.59 L 180.47 134.74 L 181.26 135.54 L 181.85 135.96 L 182.18 137.95 L 182.63 138.60 L 183.02 138.52 L 184.28 137.97 L 184.73 137.83 L 185.43 137.95 L 185.75 137.75 L 186.07 137.07 L 186.45 137.07 L 186.77 138.18 L 187.57 139.01 L 189.51 140.15 L 192.19 142.16 L 192.79 142.44 L 194.56 142.38 L 195.02 142.64 L 195.86 143.40 L 196.56 143.88 L 199.08 144.74 L 199.82 144.48 L 204.13 144.22 L 205.24 143.86 L 206.27 143.36 L 207.13 142.79 L 208.22 143.68 L 209.32 144.00 L 212.13 143.94 L 212.13 144.35 L 209.87 145.08 L 209.04 145.16 L 208.14 144.97 L 206.50 144.37 L 205.60 144.35 L 204.90 144.60 L 202.93 145.85 L 202.33 146.43 L 201.30 147.78 L 200.61 148.21 L 199.73 147.41 L 198.29 147.35 L 197.20 147.84 L 197.35 148.76 L 198.15 149.81 L 200.19 153.55 L 198.37 152.10 L 196.65 149.39 L 194.62 147.33 L 191.83 147.79 L 191.26 146.65 L 190.77 146.31 L 189.92 146.27 L 189.41 146.63 L 187.84 148.20 L 187.59 148.59 L 187.23 148.06 L 186.75 146.12 L 186.45 145.50 L 185.74 145.13 L 182.98 144.35 L 182.39 145.36 L 182.32 146.37 L 182.63 148.76 L 182.46 149.36 L 182.07 149.37 L 181.61 149.07 L 181.26 148.76 L 181.07 146.64 L 180.55 145.56 L 179.08 144.12 L 178.78 143.40 L 178.51 143.22 L 176.68 143.21 L 176.05 143.38 L 175.71 143.79 L 175.41 144.29 L 174.92 144.74 L 174.76 144.23 L 174.71 143.59 L 174.82 143.03 L 175.11 142.79 L 175.69 142.61 L 175.66 142.15 L 175.41 141.53 L 175.31 140.88 L 175.84 138.80 L 175.96 137.67 L 175.72 136.30 L 175.24 135.21 L 174.70 134.81 L 174.10 134.97 L 172.31 136.56 L 172.07 136.72 L 171.96 137.03 L 171.67 138.51 L 171.49 139.01 L 172.13 140.81 L 174.10 151.40 L 174.17 152.60 L 174.30 153.03 L 174.55 153.48 L 174.65 153.96 L 174.37 154.49 L 173.95 155.02 L 173.64 155.62 L 173.47 156.29 L 173.40 156.98 L 174.04 158.42 L 174.17 158.93 L 174.13 159.60 L 173.88 160.80 L 173.82 161.41 L 173.55 162.54 L 172.29 165.05 L 171.87 166.22 L 171.92 173.45 L 171.12 175.76 L 169.74 177.92 L 164.74 183.43 L 163.73 185.44 L 160.42 188.40 L 159.96 189.85 L 160.42 190.78 L 161.07 191.68 L 161.19 192.98 L 160.42 191.48 L 159.77 191.77 L 159.70 192.26 L 159.81 192.85 L 159.66 193.43 L 159.35 193.63 L 158.43 193.95 L 158.10 194.16 L 157.69 194.60 L 157.61 194.81 L 157.69 195.12 L 157.75 195.89 L 157.45 196.81 L 156.11 198.27 L 155.81 199.33 L 155.67 202.72 L 155.43 203.77 L 155.04 203.77 L 154.68 202.98 L 155.07 201.01 L 155.04 199.88 L 154.40 198.88 L 152.38 197.00 L 151.96 195.89 L 151.79 195.04 L 151.37 194.08 L 150.82 193.30 L 149.47 192.66 L 148.93 192.61 L 148.52 192.98 L 148.51 193.63 L 148.89 194.22 L 149.46 194.67 L 150.01 194.92 L 150.01 195.31 L 149.02 195.25 L 148.04 195.03 L 147.30 195.10 L 147.00 195.89 L 146.83 197.00 L 146.56 197.99 L 146.50 198.93 L 147.00 199.88 L 146.09 199.61 L 145.81 198.83 L 145.69 198.01 L 145.26 197.63 L 144.48 197.36 L 143.94 196.71 L 143.62 195.89 L 143.36 193.55 L 142.90 191.64 L 142.05 190.27 L 140.85 190.31 L 140.64 189.94 L 140.55 189.66 L 140.61 189.32 L 140.85 188.81 L 139.05 188.46 L 138.44 187.98 L 138.94 186.90 L 138.52 186.49 L 137.76 187.67 L 139.07 191.78 L 140.79 194.00 L 141.53 196.95 L 142.73 198.99 L 144.20 202.33 L 145.05 203.77 L 145.34 204.45 L 145.82 206.45 L 146.23 206.45 L 146.79 206.08 L 147.21 207.04 L 147.56 208.42 L 147.93 209.31 L 148.90 209.56 L 150.53 208.45 L 151.19 208.74 L 150.91 208.83 L 150.46 209.25 L 150.00 209.89 L 149.67 210.64 L 150.46 210.99 L 149.62 211.26 L 148.82 210.87 L 147.37 209.49 L 152.92 216.62 L 153.87 219.08 L 154.28 222.50 L 154.46 223.11 L 154.81 223.16 L 155.00 222.65 L 155.33 221.14 L 154.63 219.46 L 155.67 220.28 L 156.63 221.60 L 156.90 222.90 L 155.81 223.69 L 155.94 224.07 L 156.04 224.22 L 156.22 224.42 L 155.84 225.44 L 155.97 226.58 L 156.46 227.51 L 157.14 227.89 L 157.99 228.21 L 159.96 229.69 L 160.77 230.15 L 161.49 230.27 L 161.73 230.13 L 161.84 229.91 L 162.39 229.68 L 162.71 229.46 L 162.97 229.36 L 163.17 229.72 L 163.56 230.07 L 163.68 230.15 L 163.53 230.62 L 163.44 231.71 L 163.62 232.88 L 164.24 233.62 L 165.17 233.74 L 167.85 233.24 L 168.43 232.87 L 168.87 232.05 L 169.44 231.26 L 170.35 230.95 L 170.71 231.15 L 171.18 231.92 L 171.68 232.09 L 172.28 231.93 L 172.84 231.52 L 173.25 230.96 L 173.40 230.36 L 172.99 227.44 L 173.02 226.33 L 173.54 226.63 L 173.76 226.87 L 173.70 227.13 L 173.40 227.47 L 174.42 229.42 L 174.60 230.38 L 173.72 232.01 L 173.47 233.07 L 173.02 233.62 L 172.58 233.77 L 171.24 233.89 L 170.74 234.03 L 170.74 234.38 L 171.26 234.82 L 171.49 235.61 L 171.40 236.37 L 170.93 236.71 L 169.95 236.81 L 169.13 237.14 L 168.68 237.74 L 168.78 238.61 L 169.06 238.71 L 169.60 238.78 L 170.11 238.91 L 170.35 239.19 L 170.30 240.20 L 170.35 240.72 L 170.74 241.53 L 170.81 242.44 L 171.12 242.85 L 171.55 243.07 L 171.91 243.04 L 172.27 242.93 L 172.64 242.85 L 174.46 242.71 L 175.98 242.26 L 177.26 241.34 L 178.65 239.47 L 178.89 239.28 L 179.08 239.00 L 179.16 238.42 L 178.93 237.59 L 178.95 237.23 L 179.35 237.09 L 180.06 237.06 L 180.31 237.09 L 181.41 237.71 L 181.87 237.85 L 181.63 238.78 L 181.69 240.00 L 182.21 242.09 L 182.88 243.20 L 183.76 243.87 L 186.07 244.76 L 184.39 245.14 L 179.76 244.52 L 178.02 244.76 L 178.39 245.42 L 178.41 246.34 L 178.02 248.23 L 177.18 247.76 L 176.87 246.95 L 176.94 246.01 L 177.26 245.14 L 175.90 245.25 L 174.40 245.72 L 173.09 246.48 L 172.26 247.43 L 172.14 246.94 L 171.84 246.48 L 171.42 246.26 L 170.93 246.48 L 170.77 246.89 L 171.28 247.66 L 171.12 248.23 L 170.45 248.53 L 170.11 247.66 L 169.58 240.72 L 167.93 240.22 L 167.47 239.97 L 164.78 237.81 L 164.44 237.44 L 163.68 236.95 L 161.92 234.76 L 161.57 234.21 L 161.27 233.12 L 159.96 231.76 L 159.38 229.99 L 158.69 229.33 L 157.82 228.95 L 156.95 229.03 L 155.87 227.82 L 155.18 226.85 L 154.61 225.18 L 153.87 223.69 L 154.13 224.86 L 154.61 226.09 L 155.18 227.47 L 155.71 228.44 L 162.72 238.24 L 165.81 241.44 L 167.09 243.20 L 168.03 245.52 L 168.09 246.08 L 168.03 247.81 L 168.19 248.46 L 168.68 249.70 L 168.78 250.31 L 168.78 252.62 L 168.73 253.09 L 168.49 254.07 L 168.44 254.72 L 168.59 256.38 L 169.06 257.48 L 169.89 257.78 L 171.12 256.97 L 172.39 257.91 L 172.52 258.54 L 171.87 259.65 L 172.49 259.65 L 172.98 259.77 L 173.42 260.04 L 173.82 260.45 L 173.79 259.77 L 173.91 259.17 L 174.22 258.71 L 174.75 258.54 L 174.89 258.25 L 175.05 257.62 L 175.31 256.96 L 175.72 256.59 L 176.70 256.99 L 178.12 259.60 L 179.16 260.45 L 178.96 259.21 L 178.96 258.68 L 179.16 258.16 L 179.45 258.42 L 180.31 258.92 L 180.87 258.39 L 181.91 259.45 L 183.73 262.59 L 183.82 262.95 L 183.29 263.32 L 182.63 264.30 L 182.94 264.94 L 184.31 265.88 L 184.92 266.59 L 185.45 266.57 L 185.93 267.35 L 186.30 268.47 L 186.45 269.47 L 186.27 269.66 L 185.48 269.95 L 185.31 270.23 L 185.16 270.66 L 184.86 270.21 L 184.58 269.52 L 184.54 269.26 L 183.40 268.51 L 183.33 268.09 L 183.33 267.12 L 183.19 266.79 L 182.88 266.70 L 181.66 266.59 L 181.34 266.48 L 180.98 266.18 L 180.31 265.45 L 181.55 264.44 L 181.69 263.30 L 180.91 262.36 L 179.35 261.98 L 176.49 261.98 L 176.58 262.21 L 176.30 262.64 L 175.92 262.89 L 175.72 262.54 L 175.78 262.15 L 175.92 261.90 L 176.16 261.74 L 176.49 261.63 L 176.07 260.45 L 175.72 260.45 L 175.30 261.63 L 174.90 261.93 L 174.17 261.63 L 174.32 261.50 L 174.39 261.48 L 174.45 261.43 L 174.59 261.21 L 173.44 261.33 L 172.17 260.92 L 171.15 260.13 L 170.74 259.11 L 170.49 258.89 L 170.08 259.26 L 169.95 259.80 L 170.55 260.07 L 170.62 260.32 L 171.09 260.85 L 171.62 261.33 L 171.87 261.42 L 172.24 262.00 L 174.59 264.30 L 175.36 266.43 L 176.05 267.40 L 177.26 267.73 L 177.03 268.29 L 176.88 268.51 L 177.68 269.14 L 179.37 271.16 L 180.87 272.00 L 186.42 277.47 L 186.84 278.28 L 187.16 283.36 L 187.59 284.64 L 187.59 284.95 L 188.16 286.39 L 189.44 288.05 L 190.93 289.49 L 192.18 290.33 L 191.68 289.54 L 190.44 288.05 L 189.92 287.24 L 190.89 287.88 L 193.23 290.68 L 194.12 291.06 L 194.63 290.35 L 194.44 289.52 L 193.73 288.20 L 193.83 287.81 L 194.08 287.62 L 194.44 287.58 L 194.92 287.65 L 195.26 287.90 L 195.26 288.27 L 195.17 288.72 L 195.26 289.18 L 195.50 289.18 L 196.12 289.46 L 196.55 289.81 L 196.24 289.98 L 196.05 290.11 L 195.40 290.71 L 195.26 290.88 L 195.42 291.55 L 195.78 292.19 L 196.29 292.70 L 196.83 293.00 L 198.14 292.65 L 199.41 291.42 L 200.74 290.42 L 202.17 290.71 L 202.27 290.63 L 203.08 290.19 L 203.28 290.16 L 203.41 289.59 L 203.68 289.59 L 204.25 289.98 L 204.34 290.42 L 205.60 293.00 L 206.59 292.90 L 208.13 293.16 L 209.56 293.63 L 210.22 294.18 L 210.03 294.65 L 209.48 294.70 L 208.83 294.68 L 208.31 294.94 L 208.20 295.51 L 208.53 296.66 L 208.31 297.24 L 209.02 297.69 L 209.81 298.03 L 209.97 297.56 L 210.25 297.01 L 210.60 296.48 L 210.99 296.06 L 211.04 295.79 L 210.98 295.42 L 210.95 295.09 L 211.16 294.94 L 211.58 295.01 L 212.27 295.27 L 212.69 295.33 L 213.13 295.57 L 213.76 296.62 L 214.21 296.85 L 214.45 297.06 L 214.72 297.50 L 215.16 297.91 L 215.95 298.03 L 215.19 295.17 L 214.80 294.18 L 215.19 294.18 L 215.93 295.12 L 217.29 295.64 L 218.38 296.19 L 218.27 297.24 L 218.70 297.39 L 219.77 298.03 L 219.45 298.73 L 218.94 298.99 L 217.48 299.14 L 216.85 299.01 L 215.69 299.05 L 214.46 299.23 L 213.66 299.53 L 213.33 299.96 L 212.91 300.99 L 212.48 301.44 L 211.86 301.84 L 211.36 302.06 L 211.15 301.87 L 211.33 301.09 L 210.76 301.05 L 210.25 301.16 L 209.81 301.42 L 209.43 301.85 L 209.22 301.19 L 209.04 299.14 L 208.78 299.18 L 208.73 299.23 L 208.73 299.32 L 208.66 299.53 L 208.15 299.19 L 207.82 299.14 L 207.62 299.39 L 207.51 299.94 L 207.13 299.94 L 206.93 298.73 L 206.10 297.45 L 205.99 297.43 L 205.66 297.17 L 203.67 296.47 L 202.80 296.83 L 202.32 296.25 L 202.15 295.20 L 202.17 294.18 L 202.05 294.46 L 201.89 294.69 L 201.67 294.84 L 201.37 294.94 L 201.20 294.25 L 201.35 293.65 L 201.61 293.02 L 201.75 292.24 L 200.69 293.32 L 199.99 294.22 L 199.23 294.71 L 197.94 294.56 L 196.73 293.94 L 195.13 292.24 L 194.12 291.47 L 195.33 293.61 L 205.24 305.86 L 209.50 309.09 L 212.87 311.95 L 220.10 317.22 L 222.95 319.55 L 230.09 325.10 L 236.00 330.07 L 237.53 331.67 L 238.55 332.77 L 239.30 333.65 L 241.40 335.98 L 241.61 337.08 L 242.56 337.52 L 244.17 338.76 L 245.41 339.50 L 246.22 340.15 L 246.75 341.20 L 246.98 342.28 L 246.78 343.54 L 246.45 344.51 L 246.39 345.37 L 246.84 347.88 L 255.85 354.09 L 262.71 359.92 L 264.58 361.28 L 265.75 362.57 L 265.82 363.86 L 266.03 364.97 L 266.40 365.98 L 266.92 366.96 L 267.80 370.58 L 270.53 373.43 L 271.90 374.30 L 272.98 375.00 L 273.85 373.38 L 277.57 363.37 L 278.49 361.60 L 279.94 360.36 L 281.85 359.13 L 283.52 357.76 L 285.32 356.65 L 287.62 356.18 L 289.75 355.47 L 291.00 353.87 L 292.04 352.15 L 293.59 351.09 L 296.39 351.50 L 298.46 353.09 L 302.90 360.26 L 303.84 361.28 L 305.05 361.69 L 308.10 361.29 L 309.22 361.42 L 312.44 362.34 L 313.48 362.37 L 313.62 362.31 L 314.60 361.94 L 315.81 361.04 L 316.79 359.86 L 317.23 358.60 L 316.84 357.41 L 315.77 356.84 L 314.44 356.41 L 313.29 355.72 L 312.73 354.55 L 312.89 353.26 L 316.08 345.72 L 316.83 344.38 L 319.24 342.57 L 320.00 341.37 L 319.41 339.57 L 317.24 338.56 L 314.59 337.83 L 312.56 336.86 L 310.30 335.01 L 309.13 334.30 L 305.96 332.98 L 305.53 332.66 L 305.05 332.18 L 304.94 331.96 L 305.03 331.65 L 305.09 327.77 L 305.36 326.79 L 306.10 325.40 L 306.69 325.05 L 307.46 325.12 L 308.74 324.98 L 310.13 324.13 L 310.13 322.93 L 309.31 321.64 L 305.05 317.12 L 303.12 314.32 L 302.21 313.29 L 301.09 312.93 L 299.50 313.41 L 297.24 315.00 L 296.28 315.16 L 295.99 313.85 L 296.55 311.71 L 296.66 311.30 L 300.73 304.66 L 301.24 303.24 L 301.52 302.08 L 301.52 300.92 L 301.22 299.49 L 300.69 298.24 L 299.27 295.98 L 298.84 294.80 L 298.82 293.82 L 299.22 290.72 L 299.02 289.49 L 297.82 286.23 L 298.26 285.14 L 298.38 285.10 L 300.45 285.17 L 303.28 286.03 L 304.05 286.42 L 304.39 286.85 L 304.62 287.32 L 305.05 287.82 L 306.94 289.30 L 307.95 289.83 L 308.88 289.91 L 309.81 289.37 L 311.70 287.62 L 312.95 287.12 L 314.96 286.72 L 317.32 285.97 L 319.07 285.10 L 319.65 285.44 L 320.66 286.19 L 322.56 288.54 L 324.27 289.71 L 326.00 289.90 L 348.19 285.15 L 347.56 283.92 L 347.96 282.11 L 348.71 280.18 L 349.10 278.58 L 348.70 276.26 L 348.81 275.44 L 349.21 274.59 L 350.21 273.00 L 350.46 272.04 L 348.28 271.05 L 347.12 269.26 L 346.64 267.00 L 346.17 260.97 L 346.39 260.22 L 347.01 260.36 L 347.68 261.07 L 348.74 262.19 L 349.72 262.50 L 350.44 262.11 L 350.69 261.54 L 350.73 260.93 L 350.82 260.45 L 351.16 259.74 L 351.44 259.37 L 351.78 259.05 L 354.52 257.22 L 355.12 257.00 L 357.87 256.92 L 360.25 257.91 L 363.95 260.58 L 364.20 260.76 L 366.56 261.53 L 367.50 262.17 L 368.15 263.54 L 369.38 267.60 L 369.88 268.78 L 370.21 269.19 L 371.08 270.05 L 371.33 270.38 L 371.55 271.66 L 371.45 271.68 L 371.45 271.94 L 371.39 272.28 L 371.51 272.57 L 372.56 272.84 L 372.53 273.16 L 372.31 273.53 L 372.20 273.80 L 371.97 274.22 L 371.87 274.57 L 372.00 274.94 L 372.74 275.66 L 372.95 276.05 L 372.99 276.63 L 373.23 277.62 L 374.03 277.59 L 375.39 276.90 L 375.87 277.37 L 376.92 279.08 L 377.45 279.73 L 377.73 281.23 L 377.88 281.69 L 378.28 282.11 L 378.62 282.10 L 378.88 282.16 L 379.02 282.79 L 378.56 283.29 L 378.24 283.74 L 378.13 284.31 L 378.09 284.79 L 377.93 285.28 L 377.71 285.75 L 377.45 286.14 L 376.82 286.67 L 376.53 287.19 L 376.69 287.52 L 377.45 287.48 L 378.09 286.83 L 379.10 285.82 L 379.83 285.61 L 381.21 285.86 L 384.82 287.49 L 385.99 287.78 L 386.60 287.65 L 387.67 287.03 L 388.32 286.94 L 388.86 287.06 L 398.61 290.68 L 399.61 290.79 L 400.68 290.53 L 401.89 290.72 L 402.18 290.73 L 402.97 290.49 L 403.33 290.58 L 403.80 291.27 L 404.08 291.36 L 404.67 291.02 L 404.93 290.57 L 405.08 290.05 L 405.39 289.52 L 405.95 288.98 L 407.76 287.72 L 408.23 287.26 L 409.05 286.23 L 409.60 285.74 L 410.27 285.40 L 411.60 284.97 L 412.16 284.59 L 412.41 284.10 L 412.57 282.91 L 412.95 282.33 L 417.20 278.21 L 417.65 277.59 L 417.86 277.00 L 417.94 275.90 L 418.09 275.28 L 418.68 274.17 L 419.85 272.43 L 419.98 272.13 L 420.16 272.20 L 420.75 272.62 L 421.52 273.36 L 422.19 274.41 L 422.68 275.59 L 423.19 277.91 L 424.46 280.50 L 425.14 281.53 L 426.17 282.57 L 426.54 283.12 L 426.73 284.67 L 427.16 285.08 L 427.75 285.37 L 428.33 285.78 L 429.09 286.82 L 428.85 287.18 L 428.19 287.59 L 427.40 289.28 L 426.24 289.86 L 425.82 290.35 L 425.78 292.51 L 425.72 292.79 L 426.63 293.59 L 427.91 294.01 L 429.28 294.08 L 430.45 293.84 L 431.41 293.25 L 431.95 293.01 L 432.49 293.01 L 433.01 293.39 L 433.18 294.41 L 433.53 294.74 L 433.96 294.75 L 436.53 293.94 L 436.89 293.88 L 437.45 293.93 L 438.31 294.42 L 438.86 294.65 L 439.37 294.58 L 439.71 294.16 L 439.96 293.43 L 440.31 292.43 L 440.78 291.94 L 441.32 291.52 L 441.71 291.03 L 441.69 289.56 L 441.94 289.00 L 442.40 288.52 L 443.47 287.61 L 443.98 287.27 L 444.53 287.01 L 447.20 286.39 L 447.44 286.55 L 447.03 284.77 L 442.79 281.18 L 442.61 279.27 L 443.37 278.68 L 445.29 277.98 L 446.03 277.17 L 446.05 276.76 L 445.70 275.76 L 445.76 275.21 L 446.06 274.94 L 447.03 274.60 L 447.41 274.22 L 447.67 273.42 L 447.98 270.47 L 448.35 269.37 L 448.41 268.82 L 448.14 268.34 L 447.68 268.01 L 447.39 267.72 L 447.36 267.37 L 447.65 266.84 L 447.62 266.20 L 447.76 265.71 L 448.04 265.29 L 448.44 264.89 L 454.95 262.34 L 455.07 262.30 L 456.55 261.49 L 456.96 260.72 L 456.53 258.28 L 456.56 257.81 L 456.90 256.37 L 457.08 251.91 L 457.44 250.70 L 458.11 249.95 L 459.43 249.15 L 459.00 248.78 L 457.82 248.59 L 456.87 248.29 L 456.19 246.03 L 455.11 245.42 L 454.74 245.01 L 455.24 244.56 L 456.38 244.16 L 456.91 243.90 L 457.44 243.51 L 457.82 242.94 L 458.04 242.29 L 458.40 241.81 L 460.23 241.46 L 460.21 240.62 L 459.58 239.61 L 458.85 238.88 L 459.56 237.27 L 459.65 235.92 L 459.85 235.39 L 460.50 234.77 L 461.21 234.31 L 461.61 233.67 L 461.30 232.51 L 459.33 231.21 L 458.51 230.36 L 458.17 229.29 L 458.33 228.67 L 458.72 228.27 L 459.18 227.91 L 459.58 227.45 L 459.90 226.86 L 460.10 226.33 L 460.32 225.07 L 460.38 223.33 L 460.29 222.82 L 459.86 222.10 L 458.91 221.17 L 458.68 220.94 L 458.28 220.26 L 458.27 219.78 L 458.58 218.81 L 458.63 218.33 L 458.43 217.68 L 457.84 216.47 L 456.24 212.09 L 456.26 211.28 L 456.85 210.09 L 457.12 207.68 L 457.42 206.39 L 458.28 205.02 L 459.27 203.93 L 459.90 202.74 L 459.66 201.04 L 459.28 199.62 L 459.27 198.24 L 459.58 196.87 L 461.86 191.96 L 462.24 190.14 L 461.73 188.47 L 460.42 185.77 L 459.73 185.04 L 457.51 183.50 L 456.27 181.84 L 454.39 180.66 L 452.26 179.72 L 450.70 179.27 L 449.74 179.42 L 448.88 179.83 L 448.02 180.12 L 447.11 179.90 L 446.09 179.49 L 445.13 179.49 L 444.21 179.81 L 443.27 180.31 L 443.17 178.22 L 442.76 175.92 L 442.07 173.67 L 441.13 171.76 L 439.67 170.33 L 437.63 169.34 L 435.38 168.99 L 433.35 169.53 L 432.95 168.99 L 432.49 168.61 L 431.95 168.40 L 429.95 168.17 L 429.52 168.32 L 429.31 168.69 L 429.15 169.09 L 428.92 169.34 L 428.18 169.61 L 427.82 169.68 L 427.48 169.43 L 424.90 166.35 L 424.95 164.77 L 425.54 163.38 L 428.08 160.01 L 428.77 159.09 L 429.35 158.55 L 429.93 157.83 L 429.87 157.24 L 429.58 156.61 L 429.47 155.79 L 429.71 155.24 L 430.50 154.22 L 430.59 153.63 L 430.15 152.94 L 429.48 152.82 L 428.83 152.81 L 428.46 152.42 L 428.22 148.38 L 427.96 147.02 L 427.42 145.29 L 427.14 143.88 L 427.39 142.55 L 429.29 139.72 L 431.28 135.27 L 432.47 134.01 L 436.60 131.73 L 437.64 130.53 L 437.86 129.37 L 437.52 128.23 L 436.89 127.06 L 438.59 124.70 L 441.35 124.33 L 444.49 124.68 L 447.30 124.53 L 448.05 124.24 L 448.37 124.01 L 448.58 123.71 L 452.72 120.13 L 453.09 118.93 L 453.26 116.06 L 454.88 113.74 L 457.45 111.53 L 459.37 109.22 L 459.00 106.62 L 458.80 105.93 L 459.23 105.48 L 459.89 105.08 L 460.41 104.56 L 460.51 103.80 L 460.08 103.35 L 458.75 102.68 L 457.68 101.71 L 456.75 100.61 L 455.96 99.38 L 455.34 98.08 L 454.47 95.22 L 453.71 94.08 L 451.03 92.84 L 450.15 91.67 L 449.70 90.25 L 449.76 86.03 L 449.61 84.57 L 448.77 81.07 L 448.44 80.45 L 447.84 79.98 L 447.20 79.72 L 446.72 79.41 L 446.63 79.10 L 446.55 78.79 L 445.88 78.66 L 445.46 78.35 L 445.10 77.98 L 444.62 77.65 L 442.42 77.05 L 441.30 76.94 L 440.29 77.20 L 438.29 77.97 L 437.11 77.90 L 436.23 77.27 L 435.40 76.46 L 434.38 75.85 L 433.42 75.64 L 422.86 74.66 L 422.07 74.85 L 422.02 75.11 L 421.50 76.56 L 420.82 77.90 L 420.63 78.02 L 420.03 78.24 L 419.86 78.19 L 419.21 77.87 L 418.93 77.82 L 418.55 77.96 L 417.88 78.48 L 417.51 78.66 L 416.49 78.85 L 415.97 78.89 L 415.45 78.86 L 414.34 78.97 L 413.54 79.48 L 412.82 80.08 L 410.81 80.86 L 409.53 82.58 L 408.81 83.10 L 406.94 83.44 L 405.25 83.45 L 403.52 83.12 L 401.57 82.42 L 400.72 82.35 L 399.50 82.48 L 398.41 82.79 L 397.96 83.20 L 397.60 84.20 L 396.65 84.45 L 395.64 84.59 L 394.60 85.87 L 393.57 86.31 L 392.42 86.55 L 390.49 86.40 L 389.36 86.59 L 388.77 86.51 L 388.76 86.50 L 388.59 85.73 L 388.06 85.37 L 387.39 85.10 L 386.82 84.60 L 387.89 84.49 L 388.30 83.80 L 388.51 83.02 L 388.96 82.65 L 389.74 82.54 L 390.69 82.22 L 391.49 81.68 L 392.01 80.56 L 392.35 80.36 L 392.48 80.07 L 392.01 79.39 L 391.82 79.01 L 391.80 78.59 L 391.83 78.13 L 391.76 75.48 L 391.82 75.02 L 390.92 74.46 L 389.92 71.75 L 388.77 71.17 L 389.10 70.37 L 389.03 69.61 L 388.64 68.95 L 388.00 68.46 L 387.62 68.88 L 386.59 67.44 L 385.67 65.82 L 386.63 64.71 L 386.81 63.37 L 386.48 60.82 L 386.69 59.65 L 387.07 58.60 L 387.23 57.62 L 386.82 56.66 L 387.53 56.25 L 388.10 55.51 L 388.53 54.66 L 389.11 52.61 L 389.19 51.71 L 388.96 51.05 L 388.67 50.63 L 388.22 49.62 L 387.49 48.63 L 387.73 48.38 L 388.39 48.19 L 388.77 47.31 L 389.15 46.66 L 389.52 46.21 L 389.89 45.87 L 390.18 45.48 L 390.30 44.91 L 389.98 43.86 L 390.00 43.39 L 390.51 43.19 L 390.80 42.99 L 391.82 41.87 L 392.15 41.62 L 394.15 40.52 L 394.72 39.18 L 394.91 37.38 L 394.90 34.03 Z M 154.63 189.96 L 154.63 189.55 L 155.11 189.36 L 155.37 189.03 L 155.34 188.57 L 155.04 188.02 L 154.57 188.62 L 153.35 189.36 L 152.72 189.96 L 152.08 190.82 L 151.96 191.25 L 151.96 191.87 L 152.15 192.49 L 152.92 193.30 L 153.17 193.78 L 153.17 194.65 L 153.02 195.40 L 153.02 196.10 L 153.52 196.84 L 154.39 197.43 L 155.15 197.48 L 155.96 197.11 L 156.95 196.45 L 156.90 194.68 L 157.11 192.32 L 156.65 190.40 L 154.63 189.96 Z M 175.85 109.57 L 176.01 109.74 L 176.26 109.59 L 175.85 109.57 Z"
        fill="currentColor"
        fill-rule="evenodd"
    />
</svg>
